<?xml version="1.0" encoding="UTF-8"?>
<svg width="106px" height="33px" viewBox="0 0 106 33" version="1.1" xmlns="http://www.w3.org/2000/svg" xmlns:xlink="http://www.w3.org/1999/xlink">
    <!-- Generator: Sketch 48.1 (47250) - http://www.bohemiancoding.com/sketch -->
    <title>Page 1</title>
    <desc>Created with Sketch.</desc>
    <defs>
        <linearGradient x1="0%" y1="-38.6617447%" x2="0%" y2="198.220164%" id="linearGradient-1">
            <stop stop-color="#0BACED" offset="0%"></stop>
            <stop stop-color="#6BFFC0" offset="100%"></stop>
        </linearGradient>
        <polygon id="path-2" points="0 33 106 33 106 0 0 0"></polygon>
    </defs>
    <g id="商情数据标签管理" stroke="none" stroke-width="1" fill="none" fill-rule="evenodd" transform="translate(-35.000000, -8.000000)">
        <g id="导航">
            <g id="Page-1" transform="translate(35.000000, 8.000000)">
                <path d="M48.2325947,11.3088085 L52.5173072,11.3088085 L52.5173072,6.19608511 L48.2325947,6.19608511 L48.2325947,11.3088085 Z M42.4841515,11.3088085 L46.7141655,11.3088085 L46.7141655,6.19608511 L42.4841515,6.19608511 L42.4841515,11.3088085 Z M54,4.80177241 L48.2318654,4.80177241 L48.2318654,2 L46.7148948,2 L46.7148948,4.80177241 L41,4.80177241 L41,12.7016604 L46.7148948,12.7016604 L46.7148948,17 L48.2318654,17 L48.2318654,12.7016604 L54,12.7016604 L54,4.80177241 Z" id="Fill-1" fill="url(#linearGradient-1)"></path>
                <path d="M59.4965197,15.6729789 L70.4570766,15.6729789 L70.4570766,4.36999272 L59.4965197,4.36999272 L59.4965197,15.6729789 Z M58,17 L72,17 L72,3 L58,3 L58,17 Z" id="Fill-2" fill="url(#linearGradient-1)"></path>
                <polygon id="Fill-3" fill="url(#linearGradient-1)" points="65.2229141 12.6747881 65.2229141 9.58360495 68.4851806 9.58360495 68.4851806 8.25912647 65.2229141 8.25912647 65.2229141 6.32447849 68.7638854 6.32447849 68.7638854 5 60.2368618 5 60.2368618 6.32447849 63.7912827 6.32447849 63.7912827 8.25912647 60.5140722 8.25912647 60.5140722 9.58360495 63.7912827 9.58360495 63.7912827 12.6747881 60 12.6747881 60 14 69 14 69 12.6747881"></polygon>
                <path d="M66.7599049,13 L68,12.0403392 C67.3510301,11.3011305 66.1545166,10 66.1545166,10 L65,10.8494347 C66.0134707,11.9301131 66.7599049,13 66.7599049,13" id="Fill-4" fill="url(#linearGradient-1)"></path>
                <path d="M79.9516565,12.6246071 L81,11.4421576 L78.3503493,9.2726858 L78.3503493,8.52443476 L80.5724589,8.52443476 L80.5724589,7.15112035 L78.3503493,7.15112035 L78.3503493,4.9436277 C79.3781835,4.69573152 80.6245211,4.46608537 80.6245211,4.46608537 L80.3074149,3 C78.9624746,3.41899017 74.4945909,3.87600122 74.4945909,3.87600122 L74.7123056,5.32459698 L76.7876944,5.00141945 L76.7876944,7.15112035 L74.2792427,7.15112035 L74.2792427,8.52443476 L76.6275637,8.52443476 C76.445346,9.09170638 75.6352265,11.42847 74,13.6344419 L75.1469461,14.8351414 C75.1469461,14.8351414 76.1006311,13.3591706 76.7876944,11.8565852 L76.7876944,18 L78.3503493,18 L78.3503493,11.1455946 L79.9516565,12.6246071 Z" id="Fill-6" fill="url(#linearGradient-1)"></path>
                <path d="M85.1532168,10.2081382 C85.2789141,9.97026597 85.3941986,9.72621519 85.4938639,9.47212434 L84.0985496,9.236569 C84.308293,9.11454361 84.51283,8.99020128 84.7099293,8.85581889 C87.5079955,6.94511754 88.4310152,4.80735628 88.4310152,4.80735628 L88.4310152,3.53072356 L83.6098922,3.53072356 C83.8017851,3.21021383 83.9780588,2.88661486 84.1238379,2.56301588 L82.7262923,2 C82.7262923,2 81.5890666,4.57489019 79.3510599,6.33730753 L80.5641502,7.3050152 C80.5641502,7.3050152 81.6247676,6.28247333 82.6586091,4.92320317 L86.7716623,4.92320317 C86.2108591,5.84766134 85.4023801,6.6238355 84.5299368,7.2617657 L82.7069543,5.69706039 L81.756415,6.72423613 L83.2826329,8.06265386 C81.4194868,9.12690061 79.6500558,9.60882367 79.6500558,9.60882367 L80.5820007,10.8275329 C81.9044254,10.2954096 82.9070286,9.88531158 83.7712904,9.42115171 C83.542209,9.83356664 82.9576051,10.7734711 81.8850874,11.7952406 C81.2268501,12.4231308 80.350688,13.1043105 79.321309,13.6680987 L80.42209,14.8118936 C80.42209,14.8118936 82.6080327,13.64184 84.2257345,11.6137472 L87.3071774,11.6137472 C86.9851246,13.1614616 86.0405355,14.2388377 84.8995909,14.9895255 L83.2372629,13.3051117 L82.1907772,14.1955882 C82.1907772,14.1955882 83.1264411,15.1130955 83.6188174,15.6737945 C81.3852733,16.648453 79,16.707921 79,16.707921 L79.6322053,18 C82.6407586,17.7567215 84.6727408,16.8971376 86.0859055,15.7811459 C88.441428,13.9206449 89,11.568953 89,11.568953 L89,10.2081382 L85.1532168,10.2081382 Z" id="Fill-8" fill="url(#linearGradient-1)"></path>
                <mask id="mask-3" fill="white">
                    <use xlink:href="#path-2"></use>
                </mask>
                <g id="Clip-11"></g>
                <polygon id="Fill-10" fill="url(#linearGradient-1)" mask="url(#mask-3)" points="92 4 98 4 98 3 92 3"></polygon>
                <path d="M97.1156603,15.0074106 L98.6575356,14.4087184 C98.3323515,13.6217088 96.7896907,10.2163034 96.7896907,10.2163034 L95.3687776,10.8330427 C95.7638684,11.6585004 96.1573883,12.5883173 96.4707904,13.3604185 C95.7662248,13.5228422 93.921944,13.9536181 93.0045164,14.2549259 C93.0045164,14.2549259 93.4506627,13.5197036 94.2730486,11.26068 C94.9454099,9.40967742 95.0593029,8.85492589 95.3279332,8.50575414 L99,8.50575414 L99,7 L91.0188513,7 L91.0188513,8.50575414 L93.5889053,8.50575414 C93.4718704,8.98360942 93.0382916,10.6745423 92.3462936,12.3176112 C91.9535592,13.2505667 91.5466863,14.1513514 91,14.8190933 L91.3778105,16 C91.3778105,16 95.4151203,14.7775065 96.9719195,14.6299913 C97.0646048,14.8669573 97.1156603,15.0074106 97.1156603,15.0074106" id="Fill-12" fill="url(#linearGradient-1)" mask="url(#mask-3)"></path>
                <path d="M102.007859,5.2560512 L102.072025,2 L100.498501,2 C100.498501,2 100.498501,3.45209566 100.51673,5.2560512 L98.5822734,5.2560512 L98.5822734,6.73432462 L100.531313,6.73432462 C100.542251,7.86997738 100.513084,9.03796737 100.451106,9.84100861 C100.308191,11.7057889 100.036944,12.4595544 100.036944,12.4595544 C99.2735154,15.5323613 97,16.8751263 97,16.8751263 L98.1287369,18 C102.168274,15.2636543 101.92911,9.16885617 101.92911,9.16885617 L101.977963,6.73432462 L104.489184,6.73432462 L104.187313,14.776286 C104.187313,15.7848997 103.264927,15.734084 103.264927,15.734084 L101.516406,15.734084 L101.802236,17.3286175 L103.456696,17.3286175 C105.586567,17.3286175 105.666046,15.0288244 105.666046,15.0288244 L106,5.2560512 L102.007859,5.2560512 Z" id="Fill-13" fill="url(#linearGradient-1)" mask="url(#mask-3)"></path>
                <polygon id="Fill-14" fill="url(#linearGradient-1)" mask="url(#mask-3)" points="56 29 57 29 57 23 56 23"></polygon>
                <polygon id="Fill-15" fill="url(#linearGradient-1)" mask="url(#mask-3)" points="56 22 57 22 57 21 56 21"></polygon>
                <polygon id="Fill-16" fill="url(#linearGradient-1)" mask="url(#mask-3)" points="96 29 97 29 97 23 96 23"></polygon>
                <polygon id="Fill-17" fill="url(#linearGradient-1)" mask="url(#mask-3)" points="98 29 99 29 99 20 98 20"></polygon>
                <polygon id="Fill-18" fill="url(#linearGradient-1)" mask="url(#mask-3)" points="96 22 97 22 97 21 96 21"></polygon>
                <path d="M53.5524831,22.9414634 C53.5524831,22.9414634 52.1402376,22.5821951 51.201706,23.6402439 L51.201706,20 L50,20 L50,29 L51.201706,29 L51.201706,24.9178049 C51.4129868,24.5241463 51.9993838,23.7141463 53.1403002,23.9336585 C53.1403002,23.9336585 53.7756253,24.0353659 53.7756253,25.0846341 L53.7756253,29 L54.9958647,29 L54.9958647,25.1212195 C54.9958647,25.1212195 55.1515453,23.3358537 53.5524831,22.9414634" id="Fill-19" fill="url(#linearGradient-1)" mask="url(#mask-3)"></path>
                <path d="M62.5412362,23.0563479 C62.5412362,23.0563479 61.0589973,22.6924069 60.1139205,23.8143789 L59.9241581,23.1216707 L59,23.1216707 L59,28.9985643 L60.1684585,28.9985643 L60.1684585,25.043308 L60.1669643,25.030387 C60.3888519,24.670753 61.0238837,23.8560132 62.1265978,24.0297286 C62.1265978,24.0297286 62.7676064,24.1295073 62.7676064,25.158879 L62.7676064,29 L63.9958326,29 L63.9958326,25.1947706 C63.9958326,25.1947706 64.1527228,23.4432596 62.5412362,23.0563479" id="Fill-20" fill="url(#linearGradient-1)" mask="url(#mask-3)"></path>
                <path d="M68.7436767,27.4127913 C68.7436767,27.4127913 68.1818795,27.9532124 67.1083238,27.9887756 C67.1083238,27.9887756 66.1045188,27.9260171 66.251602,27.0132284 C66.4055086,26.0613899 67.6966566,26.131819 68.7436767,26.4490985 L68.7436767,27.4127913 Z M68.5905282,23.1814684 C67.1212125,22.6877676 65.5366563,23.3578897 65.5366563,23.3578897 L65.5366563,24.4045634 C65.5366563,24.4045634 68.7959898,23.0636217 68.7959898,25.4261336 L68.7823429,25.4847083 C68.7823429,25.4847083 67.005972,24.9910075 66.0226374,25.543283 C66.0226374,25.543283 64.488878,26.3082403 65.1780462,27.8953351 C65.1780462,27.8953351 65.7155823,29.0473037 67.1083238,28.9984915 C67.5829325,28.9817558 68.1545857,28.8053345 68.8338979,28.3883386 L68.9354914,28.8583306 L69.9969166,28.8583306 L69.9969166,25.2267008 C69.9969166,25.2267008 70.1333856,23.6995753 68.5905282,23.1814684 Z" id="Fill-21" fill="url(#linearGradient-1)" mask="url(#mask-3)"></path>
                <polygon id="Fill-22" fill="url(#linearGradient-1)" mask="url(#mask-3)" points="77.0003516 27.6161563 74.5528791 21 73 21 73 30 74.1541099 30 74.1541099 23.1430834 76.7105934 30 77.2739341 30 79.8318242 23.1906019 79.8318242 30 81 30 81 21 79.4604835 21"></polygon>
                <path d="M84.9992926,27.9951884 C83.9035605,27.9951884 83.0143834,27.1037437 83.0143834,26.0045769 C83.0143834,24.9054102 83.9035605,24.0146696 84.9992926,24.0146696 C86.0957321,24.0146696 86.9856166,24.9054102 86.9856166,26.0045769 C86.9856166,27.1037437 86.0957321,27.9951884 84.9992926,27.9951884 M84.9992926,23 C83.3433153,23 82,24.3428001 82,25.9996479 C82,27.6564957 83.3433153,29 84.9992926,29 C86.6566847,29 88,27.6564957 88,25.9996479 C88,24.3428001 86.6566847,23 84.9992926,23" id="Fill-23" fill="url(#linearGradient-1)" mask="url(#mask-3)"></path>
                <path d="M91.4951728,27.9556536 C90.4704683,27.9801925 90.1323503,27.2931034 90.1323503,27.2931034 L90.1323503,24.4285485 C90.1323503,24.4285485 90.6319369,23.8374499 91.4675713,23.8374499 C92.3032058,23.8374499 92.6951467,24.5274258 92.8027924,25.5436247 C92.9104381,26.5583801 92.6537445,27.927506 91.4951728,27.9556536 M92.5743903,23.0471532 C91.1432541,22.3283079 90.145461,23.3704892 90.145461,23.3704892 L90.145461,20 L89,20 L89,28.8578188 L89.8763466,28.8578188 L90.0253946,28.3360064 C90.5236011,28.9566961 91.4130584,29 91.4130584,29 C92.1796892,29 92.7738109,28.6412991 93.1947333,28.1678428 C93.6715487,27.6315958 93.9213419,26.8131516 93.9627442,26.4602245 C94.0676297,25.5472334 94.0469286,23.7883721 92.5743903,23.0471532" id="Fill-24" fill="url(#linearGradient-1)" mask="url(#mask-3)"></path>
                <path d="M101.219059,25.316258 C101.219059,25.316258 101.458259,23.9903398 102.603151,23.9903398 C103.746624,23.9903398 103.788502,25.316258 103.788502,25.316258 L101.219059,25.316258 Z M104.401051,23.8212677 C103.732428,22.9211868 102.612379,23.0018644 102.612379,23.0018644 C101.955822,23.0018644 101.35321,23.2768696 100.966374,23.610103 C100.350985,24.1404703 100.154373,24.9297073 100.154373,24.9297073 C99.6440337,26.9389292 100.562503,28.0382487 100.562503,28.0382487 C101.0118,28.6380688 101.911105,28.9509574 102.618767,28.991647 C103.850964,29.0653091 104.750268,28.6275456 104.750268,28.6275456 L104.750268,27.6495933 C101.158017,28.8857138 101.11543,26.3138535 101.11543,26.3138535 L104.995856,26.3138535 C105.037024,25.0840469 104.766594,24.311647 104.401051,23.8212677 Z" id="Fill-25" fill="url(#linearGradient-1)" mask="url(#mask-3)"></path>
                <path d="M45.1240831,28.8335178 C43.4470172,28.8335178 42.0874061,27.3451418 42.0874061,25.5072809 C42.0874061,23.6709529 43.4470172,22.181044 45.1240831,22.181044 C46.2567388,22.181044 47.2430402,22.8623861 47.7648255,23.8694541 L48.9830314,23.8694541 C48.3820592,22.190241 46.8866991,21 45.1332744,21 C42.8509943,21 41,23.0141361 41,25.4996168 C41,27.9866303 42.8509943,30 45.1332744,30 C46.9050817,30 48.4124613,28.7844673 49,27.0776633 L47.8015908,27.0776633 C47.2889969,28.1215192 46.2821918,28.8335178 45.1240831,28.8335178" id="Fill-26" fill="url(#linearGradient-1)" mask="url(#mask-3)"></path>
                <path d="M1.46500939,10.7953856 C1.46500939,10.7953856 4.75555707,15.1701636 8.38187492,18.0797475 C8.38187492,18.0797475 9.75594978,19.2551719 11.225221,17.9200028 C12.6952302,16.5848336 18.7649218,11.0205143 18.7649218,11.0205143 C18.7649218,11.0205143 21.0496348,8.73579249 23.6051779,11.0034253 C23.6051779,11.0034253 28.972335,15.8136007 31.9116154,19.8495711 C31.9116154,19.8495711 32.087249,19.9944559 31.9433475,20.2522765 C31.799446,20.5093542 31.512381,21.2166892 31.512381,21.2166892 C31.512381,21.2166892 28.2852976,17.018745 24.5637833,13.9144953 C24.5637833,13.9144953 23.1100092,12.8051979 21.8636008,13.9791362 C20.6179303,15.1530746 14.7076374,20.5903411 13.765267,21.2813301 C12.8228967,21.9730621 11.2724502,22.6915421 9.06891235,20.7181369 C7.3509498,19.180872 2.8516295,14.8974829 1.08127205,12.1944527 C1.08127205,12.1944527 0.921873462,12.0488249 1.04953992,11.7597983 C1.20377282,11.4105888 1.46500939,10.7953856 1.46500939,10.7953856" id="Fill-27" fill="url(#linearGradient-1)" mask="url(#mask-3)"></path>
                <path d="M2,10.0887805 L3.90204985,12.2299844 C3.90204985,12.2299844 4.14074139,12.5415433 4.58669801,12.1467493 C5.03340287,11.7534825 10.903419,5.93695243 13.1414328,4.30279537 C14.4224357,3.36659137 15.797718,2.7610369 17.3316292,2.65489306 C18.477199,2.57394883 19.7065727,2.6961288 21.0302258,3.30244688 C22.4638715,3.95992783 24.6465149,5.76208235 26.6974663,7.93001315 C28.1453288,9.45878999 29.5849606,11.154037 30.7978728,12.796594 C31.6172058,13.9069044 32.4013711,15.0240875 33,16 C33,16 33.0141874,14.6491477 32.4170844,13.5060014 C32.4170844,13.5060014 30.0234347,8.82498141 25.3446315,4.42192084 C24.8881994,3.9927637 20.8992821,-0.0849927129 17.0233505,0.00358776347 C17.0233505,0.00358776347 13.4108026,-0.204881806 10.1207502,2.55638546 C9.57826943,3.01150584 3.80402919,8.09342886 2,10.0887805" id="Fill-28" fill="url(#linearGradient-1)" mask="url(#mask-3)"></path>
                <path d="M6,14.3906603 L8.17917993,16.4531996 C8.17917993,16.4531996 8.67934428,16.8289449 9.25332807,16.2952241 C9.25332807,16.2952241 11.3443766,14.2895265 13.1356279,12.6831967 C14.8244358,11.1676659 16.5252959,9.61227211 17.1595405,9.1686121 C17.1595405,9.1686121 19.897639,6.38263387 23.3874906,9.09553 C23.3874906,9.09553 28.127753,12.745944 32.8077547,19 L32.9629262,18.2640116 C32.9629262,18.2640116 33.1399422,17.6476121 32.7203766,17.0843631 C32.7203766,17.0843631 29.0625481,11.7944003 24.5557962,7.99044007 C24.5557962,7.99044007 22.3103294,5.66436233 19.4404104,5.08339655 C19.4404104,5.08339655 17.0661363,4.53269709 14.8199163,6.26156858 C13.716391,7.11124026 11.3187658,9.30001223 9.31961491,11.1654513 C7.46283008,12.8980138 6,14.3906603 6,14.3906603" id="Fill-29" fill="url(#linearGradient-1)" mask="url(#mask-3)"></path>
                <path d="M31,22.9120258 L29.0978583,20.7705298 C29.0978583,20.7705298 28.8591553,20.4589284 28.4131771,20.8537763 C27.967199,21.2470967 22.0976478,27.0651838 19.8595259,28.6988 C18.5769646,29.6351317 17.2023642,30.240005 15.668379,30.3469271 C14.5220056,30.4271186 13.2933209,30.304922 11.9703522,29.6985212 C10.5351407,29.0417143 8.35388851,27.239314 6.30283804,25.072615 C4.85415736,23.5428659 3.41445612,21.8466239 2.20223366,20.2038429 C1.38136449,19.0941448 0.597909607,17.9760456 0,17 C0,17 -0.014187908,18.3510365 0.581447327,19.4943387 C0.581447327,19.4943387 2.97521255,24.1759972 7.65498988,28.5796583 C8.11144402,29.0081102 12.1013021,33.0879503 15.9766726,32.9963028 C15.9766726,32.9963028 19.5886466,33.207092 22.8788578,30.4454481 C23.4228613,29.9895019 29.196632,24.9076495 31,22.9120258" id="Fill-30" fill="url(#linearGradient-1)" mask="url(#mask-3)"></path>
                <path d="M27,18.6088445 L24.8207994,16.5461965 C24.8207994,16.5461965 24.3206303,16.1704313 23.7473943,16.7041803 C23.7473943,16.7041803 21.6570791,18.7099837 19.8650576,20.3163981 C18.1762336,21.8327471 16.4761106,23.3874847 15.8411068,23.8311681 C15.8411068,23.8311681 13.102229,26.616555 9.61385079,23.904254 C9.61385079,23.904254 4.8735433,20.2536476 0.191990626,14 L0.0368176811,14.735289 C0.0368176811,14.735289 -0.139446732,15.3524593 0.279369566,15.9142614 C0.279369566,15.9142614 3.93798604,21.2052415 8.44402757,25.0094022 C8.44402757,25.0094022 10.6902689,27.3348644 13.5609684,27.9165991 C13.5609684,27.9165991 15.9345119,28.4673276 18.18,26.7383649 C19.284289,25.8886484 21.6826902,23.699761 23.6818601,21.8342236 C25.5379093,20.102308 27,18.6088445 27,18.6088445" id="Fill-31" fill="url(#linearGradient-1)" mask="url(#mask-3)"></path>
            </g>
        </g>
    </g>
</svg>