<?xml version="1.0" encoding="UTF-8"?>
<svg width="550px" height="176px" viewBox="0 0 550 176" version="1.1" xmlns="http://www.w3.org/2000/svg" xmlns:xlink="http://www.w3.org/1999/xlink">
    <!-- Generator: Sketch 48.1 (47250) - http://www.bohemiancoding.com/sketch -->
    <title>Page 1</title>
    <desc>Created with Sketch.</desc>
    <defs>
        <polygon id="path-1" points="0.0901804046 0.87197399 19.2368879 0.87197399 19.2368879 7.83573868 0.0901804046 7.83573868"></polygon>
    </defs>
    <g id="爬虫" stroke="none" stroke-width="1" fill="none" fill-rule="evenodd" transform="translate(-696.000000, -1911.000000)">
        <g id="应用场景" transform="translate(-1.000000, 1223.000000)">
            <g id="Group-9-Copy" transform="translate(0.000000, 566.000000)">
                <g id="Page-1" transform="translate(697.000000, 122.000000)">
                    <polygon id="Fill-1" fill="#FFB65A" points="401.080078 125.892578 405.776367 115.392578 395.748047 117.037109 362.160156 100.785156 346.611328 103.323242 382.666992 120.222656 370 123.242188"></polygon>
                    <polygon id="Fill-2" fill="#FFB65A" points="388.118424 69.0836424 386.236028 73.2738179 383.58922 72.0153321 370.251324 73.9984273 365 72.5017882 380.035886 69.4611732 376.698118 67.8100586"></polygon>
                    <polygon id="Fill-3" fill="#727256" points="405 89 313.014767 59.971607 313 58 404.984365 87.0275128"></polygon>
                    <polygon id="Fill-4" fill="#8E8E6A" points="269.850202 113 178 84.1722028 313.150665 60 405 88.8286713"></polygon>
                    <polygon id="Fill-5" fill="#9D9F9B" points="269.850202 111 178 82.1713287 313.150665 58 405 86.8277972"></polygon>
                    <polygon id="Fill-6" fill="#73ADC9" points="403.984407 86 404 87.949152 269.014727 112 269 110.051718"></polygon>
                    <polygon id="Fill-7" fill="#7F807D" points="270 113 178.014767 83.9724872 178 82 269.984365 111.028393"></polygon>
                    <polygon id="Fill-8" fill="#71B6C6" points="269 113 177.019978 84.5801017 177 82 268.980022 110.42076"></polygon>
                    <polygon id="Fill-9" fill="#E0F1FF" points="269.035039 110 177 81.2248819 312.96583 57 405 85.7759906"></polygon>
                    <g id="Group-72" transform="translate(237.000000, 33.000000)">
                        <polygon id="Fill-69" fill="#A7D5E7" points="44.5924687 1.02784648 44.4968466 52.7500718 2.09553638 58.7049169 2.19115843 6.98352254"></polygon>
                        <polygon id="Fill-70" fill="#BDE0E0" points="2.09520378 58.7050831 0.474617953 57.824238 0.57024 6.10201268 2.19082583 6.98285775"></polygon>
                        <polygon id="Fill-71" fill="#B1CFCF" points="2.19099213 6.98310704 0.570406299 6.10226197 42.9717165 0.146585915 44.5923024 1.02743099"></polygon>
                    </g>
                    <polygon id="Fill-73" fill="#FFFFFF" points="274.33435 42 245 46.2629577 245 48.4833521 274.33435 44.2203944"></polygon>
                    <polygon id="Fill-73-Copy" fill="#FFFFFF" points="264.955906 61 245 64.1701719 245 65.8213803 264.955906 62.6512084"></polygon>
                    <polygon id="Fill-74" fill="#FFFFFF" points="274.33435 48 245 52.2629577 245 54.4833521 274.33435 50.2203944"></polygon>
                    <polygon id="Fill-75" fill="#FFFFFF" points="274.33435 54 245 58.2629577 245 60.4833521 274.33435 56.2203944"></polygon>
                    <polygon id="Fill-11" fill="#8E8E6A" points="0 118.171329 91.8488185 147 227 122.827797 135.149447 94"></polygon>
                    <polygon id="Fill-12" fill="#9D9F9B" points="0 116.171804 91.8502023 145 227 120.828196 135.150665 92"></polygon>
                    <polygon id="Fill-13" fill="#73ADC9" points="226.984407 121 227 122.948282 92.0147271 147 92 145.050848"></polygon>
                    <polygon id="Fill-14" fill="#7F807D" points="0.0165041119 117.971607 92 147 91.9852332 145.028393 0 116"></polygon>
                    <polygon id="Fill-15" fill="#71B6C6" points="0.0199777186 118.57924 92 147 91.9791537 144.419898 0 116"></polygon>
                    <polygon id="Fill-16" fill="#E0F1FF" points="0 116.224009 92.0345205 145 228 120.775991 135.96548 92"></polygon>
                    <path d="M227.726201,122.345689 L227.710555,120.379243 L92.2737993,144.654311 L92.2894449,146.620757 L227.726201,122.345689 Z M92,144.372513 L227.980008,120 L228,122.627487 L92.0199917,147 L92,144.372513 Z" id="Fill-17" fill="#71B6C6"></path>
                    <polygon id="Fill-18" fill="#8E8E6A" points="322 146.171329 413.850202 175 549 150.827797 457.150665 122"></polygon>
                    <polygon id="Fill-19" fill="#9D9F9B" points="413.850202 173 322 144.172203 457.150665 120 549 148.828671"></polygon>
                    <polygon id="Fill-20" fill="#73ADC9" points="414 173.051653 414.014727 175 549 150.948347 548.985273 149"></polygon>
                    <polygon id="Fill-21" fill="#7F807D" points="322.014767 145.971607 414 175 413.985233 173.028393 322 144"></polygon>
                    <polygon id="Fill-22" fill="#71B6C6" points="322.019978 146.57924 413.997394 175 414 175 413.979154 172.419898 322 144"></polygon>
                    <polygon id="Fill-23" fill="#E0F1FF" points="322 144.224483 414.035039 173 550 148.775517 457.96583 120"></polygon>
                    <path d="M414,173.372513 L414.019992,176 L414.024338,176 L550,151.627487 L549.980008,149 L414,173.372513 Z M414.274667,173.654311 L549.710557,149.379243 L549.725333,151.345689 L414.289443,175.620757 L414.274667,173.654311 Z" id="Fill-24" fill="#71B6C6"></path>
                    <polygon id="Fill-26" fill="#9D9F9B" points="427.167695 77 360 56.3309359 458.831435 39 526 59.6690641"></polygon>
                    <polygon id="Fill-27" fill="#73ADC9" points="525.964062 59.5226562 526 61.4241938 427.011325 79 426.964063 76.9832031"></polygon>
                    <polygon id="Fill-28" fill="#7F807D" points="427 78 360.01041 57.3996807 360 56 426.988722 76.6003193"></polygon>
                    <polygon id="Fill-29" fill="#71B6C6" points="427 79 360.014747 57.9140363 360 56 426.984386 77.0859637"></polygon>
                    <polygon id="Fill-30" fill="#E0F1FF" points="427.00759 77 360 56.3687324 458.991542 39 526 59.6312676"></polygon>
                    <g id="Group-72" transform="translate(105.000000, 0.000000)">
                        <g id="Group-57" transform="translate(336.000000, 0.000000)">
                            <polygon id="Fill-50" fill="#E6948A" points="20.0104594 3.57092263 19.8356672 51.4887547 7.14467016 55.7526008 7.31946237 7.83573868"></polygon>
                            <polygon id="Fill-52" fill="#F9E3D2" points="7.14482485 55.7528918 0.689114412 53.0535552 0.86390662 5.13572311 7.31961706 7.83602966"></polygon>
                            <g id="Group-56" transform="translate(0.773417, 0.000000)">
                                <mask id="mask-2" fill="white">
                                    <use xlink:href="#path-1"></use>
                                </mask>
                                <g id="Clip-55"></g>
                                <polygon id="Fill-54" fill="#DD7A74" mask="url(#mask-2)" points="6.54589084 7.83573868 0.0901804046 5.13640207 12.7819509 0.871586015 19.2368879 3.57092263"></polygon>
                            </g>
                        </g>
                        <g id="Group-64" transform="translate(0.000000, 45.000000)">
                            <polygon id="Fill-58" fill="#E6948A" points="33.207889 4.03724812 32.9160039 68.2011266 11.625248 73.9124123 11.9171331 9.74853376"></polygon>
                            <polygon id="Fill-60" fill="#F9E3D2" points="11.6248265 73.9122013 0.796625166 70.2980778 1.08956405 6.13419928 11.9167116 9.74832278"></polygon>
                            <polygon id="Fill-62" fill="#DD7A74" points="11.9170278 9.74863925 1.08988017 6.13451575 22.3795823 0.423230107 33.2077837 4.03735361"></polygon>
                        </g>
                        <g id="Group-71" transform="translate(323.000000, 67.000000)">
                            <polygon id="Fill-65" fill="#E6948A" points="36 4 35.6744084 73.7882532 12 80 12.3245379 10.2127787"></polygon>
                            <polygon id="Fill-67" fill="#F9E3D2" points="11.6840491 80 0 76.0536372 0.31595092 6 12 9.94532704"></polygon>
                            <polygon id="Fill-69" fill="#DD7A74" points="11.7991798 10 0 6.12410987 23.2008202 0 35 3.87487284"></polygon>
                        </g>
                    </g>
                    <g transform="translate(285.000000, 38.000000)">
                        <polygon id="Fill-1" fill="#E6F0F4" points="21.0102539 8.92267727 21.0102539 41 49 37.4206261 48.4610156 6"></polygon>
                        <path d="M40.0935409,23.7179539 L33.422629,29.3572357 C31.7009573,30.8128153 29,29.6361491 29,27.4309895 L29,24.5314515 L29,19.5676634 C29,17.8041167 30.8061709,16.5664382 32.5368961,17.1431499 L39.2062991,19.3671943 C41.136201,20.010729 41.6281072,22.4192631 40.0935409,23.7179539 Z" id="Fill-1" fill="#7ED321"></path>
                        <polygon id="Fill-2" fill="#DCE0E2" points="0.529767911 35.0533331 21 41 21 9.09851609 0 3.35071223"></polygon>
                        <polygon id="Fill-3" fill="#839BA5" points="26.7110159 0 0 3.35720792 20.9322266 9.09667969 48.4905697 5.94578403"></polygon>
                    </g>
                    <path d="M278.21106,92.7601012 L288.177765,91.0488615 L288.177765,91.869649 L282.010133,92.9286044 L281.529386,94.9458599 L286.594818,94.0761475 L285.656775,100.498641 L288.482629,100.013455 L288.482629,100.834242 L278,102.634064 L278,101.813276 L284.824262,100.64158 L285.152577,98.5215157 L279.641575,99.4677306 L281.154169,93.0755697 L278.21106,93.5808887 L278.21106,92.7601012 Z M285.281558,97.7137594 L285.691951,95.0167766 L281.330052,95.7656956 L280.673422,98.5049561 L285.281558,97.7137594 Z M294.462652,92.0217426 L297.38231,91.52045 C297.827881,90.6583366 298.214823,89.7476617 298.531413,88.7904384 L299.305298,88.9507041 C298.953532,89.9022415 298.601766,90.7013469 298.226549,91.3754979 L299.973654,91.0755276 L299.973654,91.8728641 L297.569919,92.2855748 L297.569919,92.6373409 C297.569919,93.2236177 297.534742,93.7807575 297.476115,94.3184727 L300.172988,93.8554314 L300.172988,94.6644933 L297.745802,95.0812306 C298.027215,96.3227221 298.894904,97.4870036 300.348871,98.574075 L299.762594,99.2961895 C298.414157,98.1909991 297.569919,97.0109657 297.229878,95.7678147 C296.772583,97.6520629 295.869716,99.1437921 294.533005,100.240989 L294.028807,99.6592023 C295.342067,98.6363849 296.186306,97.1781728 296.549797,95.2865793 L294.286769,95.6751314 L294.286769,94.8660695 L296.667053,94.4573851 C296.713955,93.9803108 296.749131,93.4817987 296.760857,92.9638619 L296.760857,92.4244872 L294.462652,92.819079 L294.462652,92.0217426 Z M295.62348,89.360071 C296.092501,89.9713487 296.455993,90.5186666 296.713955,91.0020248 L296.080776,91.5445836 C295.811089,91.0280621 295.447597,90.4807441 294.978576,89.881192 L295.62348,89.360071 Z M289.60828,90.7797972 L294.275043,89.9785343 L294.275043,90.7641452 L293.512884,90.8950047 L293.512884,97.3323238 C293.782571,97.1922154 294.040533,97.0658457 294.298494,96.939476 L294.298494,97.7602635 C294.040533,97.8866332 293.770845,98.0150161 293.512884,98.1296602 L293.512884,100.439591 L292.703822,100.578503 L292.703822,98.4913578 C291.765779,98.8869263 290.804285,99.2747958 289.795889,99.6355416 L289.584829,98.8744432 L290.323538,98.6303548 L290.323538,91.4426014 L289.60828,91.5654081 L289.60828,90.7797972 Z M291.1326,98.3390104 C291.671975,98.1291468 292.187898,97.9233096 292.703822,97.7057469 L292.703822,95.9703676 L291.1326,96.2401395 L291.1326,98.3390104 Z M291.1326,95.4662542 L292.703822,95.1964823 L292.703822,93.5197307 L291.1326,93.7895026 L291.1326,95.4662542 Z M291.1326,93.0273428 L292.703822,92.7575709 L292.703822,91.0339171 L291.1326,91.303689 L291.1326,93.0273428 Z M306.317169,95.5208267 C305.941951,94.9872475 305.566734,94.4888449 305.203243,94.0236058 C304.781123,95.2451843 304.2652,96.3187111 303.667197,97.242173 L303.127823,96.6781512 C303.737551,95.705774 304.241749,94.5873583 304.640417,93.3346296 C304.077591,92.68083 303.526491,92.0953704 302.987116,91.5665253 L303.514765,90.9717322 C303.94861,91.3545389 304.417632,91.8251101 304.910104,92.3971847 C305.132889,91.538146 305.320498,90.6147937 305.461204,89.6525922 L306.23509,89.6604259 C306.047481,90.9003676 305.801245,92.0448457 305.496381,93.09386 C305.941951,93.6270854 306.410973,94.214912 306.879994,94.8613662 L306.317169,95.5208267 Z M309.75275,95.4703269 C309.354082,94.8469699 308.955414,94.270515 308.568471,93.7272235 C308.09945,94.956855 307.54835,96.0364214 306.915171,96.965923 L306.375796,96.4136268 C307.032426,95.4097456 307.583526,94.2715514 308.017371,93.0010575 C307.477997,92.2963294 306.950347,91.6599412 306.410973,91.0959195 L306.938622,90.5011264 C307.360741,90.9093973 307.829763,91.4151452 308.322235,92.034122 C308.580197,91.1104159 308.779531,90.1264227 308.943688,89.0898415 L309.741025,89.0936488 C309.529965,90.4314212 309.248552,91.6522921 308.896786,92.767987 C309.342357,93.3715656 309.823104,94.0511833 310.327302,94.8088533 L309.75275,95.4703269 Z M310.292125,97.4296874 L309.107846,97.6330229 L308.885061,96.8504867 L310.010712,96.6923938 C310.339027,96.6360236 310.503185,96.443681 310.503185,96.1270915 L310.503185,88.0012953 L302.811233,89.3219698 L302.811233,98.7610259 L301.97872,98.9039648 L301.97872,88.6558467 L311.335698,87.0492945 L311.335698,96.1717612 C311.335698,96.8870189 310.983932,97.3109072 310.292125,97.4296874 Z M313.90359,86.3738879 C314.607122,86.4758797 315.263752,86.6328265 315.850029,86.8604803 L315.404459,87.6170639 C314.77128,87.3505608 314.138101,87.177862 313.493196,87.0775296 L313.90359,86.3738879 Z M317.679213,85.4442172 L318.511726,85.4068081 C318.417921,85.6808757 318.324117,85.9549433 318.206862,86.2095862 L322.932252,85.3982573 L322.932252,85.9024553 C322.791546,86.5011652 322.603937,87.107928 322.369427,87.7110182 L321.560365,87.6036944 C321.759699,87.205978 321.923856,86.7673991 322.064563,86.2859445 L320.071222,86.6281925 C320.02432,86.9176582 319.953966,87.1876993 319.860162,87.4383158 C320.46989,88.2364945 321.67762,88.6505859 323.483353,88.68059 L323.178489,89.4833681 C321.466561,89.4255326 320.247105,89.0017289 319.520122,88.1885059 C319.379415,88.4237242 319.226983,88.6492302 319.0511,88.8670372 C318.476549,89.5050597 317.538506,90.0999624 316.225246,90.6303073 L315.908657,89.9342301 C317.057759,89.490698 317.890272,89.0077186 318.406196,88.4735664 C318.828315,88.0141477 319.121453,87.4478936 319.26216,86.7671049 L317.761291,87.0247975 C317.432976,87.503287 317.046034,87.956666 316.600463,88.3849346 L316.107991,87.81286 C316.881876,87.1171615 317.3978,86.3250476 317.679213,85.4442172 Z M322.134916,89.9322323 L322.134916,93.4147164 L321.290677,93.5596684 L321.290677,90.8627953 L315.439635,91.8673937 L315.439635,94.6580711 L314.595397,94.8030232 L314.595397,91.2267348 L322.134916,89.9322323 Z M318.030979,91.8680417 L318.875217,91.7934428 C318.71106,93.310771 318.359294,94.3678382 317.808193,94.9783832 C317.198466,95.7162498 315.838303,96.3601774 313.727707,96.8867151 L313.399392,96.1926511 C315.263752,95.7670188 316.494933,95.2390409 317.092936,94.5969918 C317.620585,94.0021988 317.937174,93.0918776 318.030979,91.8680417 Z M315.533439,88.2984506 L316.025912,88.7884464 C315.439635,89.4988355 314.712652,90.1982065 313.844962,90.8865597 L313.282137,90.3265644 C314.173277,89.6693614 314.923712,88.989415 315.533439,88.2984506 Z M319.144904,93.8929117 C320.669224,94.0298609 322.052837,94.2730475 323.30747,94.6204583 L322.850174,95.4025062 C321.513463,94.9988347 320.129849,94.732197 318.71106,94.6123054 L319.144904,93.8929117 Z M325.593949,84.3549788 C326.426462,84.8217678 327.129994,85.2989767 327.704545,85.7866056 L327.129994,86.4598048 C326.614071,85.9855609 325.910539,85.4966264 325.019398,85.0047269 L325.593949,84.3549788 Z M325.382889,87.263973 C326.156775,87.7173771 326.813405,88.1791878 327.341054,88.663144 L326.766503,89.3363432 C326.297481,88.865772 325.652577,88.3902225 324.808338,87.9137212 L325.382889,87.263973 Z M326.743052,90.1963338 L327.470035,90.3529268 C326.954111,91.9189261 326.367834,93.4032005 325.72293,94.8154622 L324.937319,94.5985821 C325.640851,93.1410776 326.238854,91.6782411 326.743052,90.1963338 Z M329.885495,85.71701 L331.550521,85.4311323 C331.691228,85.043482 331.796757,84.6618714 331.878836,84.2725617 L329.052982,84.7577485 L329.052982,88.1698793 C329.00608,90.7106479 328.56051,92.8273936 327.716271,94.4966653 L327.083092,94.0425537 C327.810075,92.5927483 328.197018,90.6854028 328.232195,88.310805 L328.232195,84.1365143 L335.267516,82.9285803 L335.267516,83.6907402 L332.676173,84.1356625 C332.594094,84.5366977 332.488564,84.9183083 332.359583,85.2922199 L334.646063,84.8996413 L334.646063,89.0153043 L332.699624,89.3494994 L332.699624,92.667826 C332.699624,93.3010049 332.383034,93.6719514 331.773306,93.776639 L330.788361,93.9457497 L330.612478,93.2137883 C330.917342,93.1966211 331.210481,93.1697416 331.491893,93.1214242 C331.749855,93.0771333 331.890562,92.9005427 331.890562,92.6074043 L331.890562,89.4884118 L329.885495,89.832673 L329.885495,85.71701 Z M333.895628,88.4640696 L333.895628,87.4087714 L330.635929,87.9684474 L330.635929,89.0237456 L333.895628,88.4640696 Z M330.635929,87.3352685 L333.895628,86.7755924 L333.895628,85.6968432 L330.635929,86.2565192 L330.635929,87.3352685 Z M330.178633,90.6148554 L330.929068,90.6501666 C330.624204,91.7343576 330.202085,92.7096998 329.66271,93.5644679 L328.982629,93.2591156 C329.533729,92.4257854 329.932397,91.5482738 330.178633,90.6148554 Z M334.165316,89.8717318 C334.646063,90.5982516 335.068182,91.3934652 335.419948,92.2476603 L334.70469,92.6870564 C334.329473,91.7430835 333.907354,90.9361444 333.461783,90.2387615 L334.165316,89.8717318 Z M341.399971,81.359741 L342.267661,81.2107625 L342.267661,83.3213589 L346.477128,82.5986118 L346.477128,88.1096135 L345.632889,88.2545656 L345.632889,87.5158568 L342.267661,88.0936519 L342.267661,92.0920596 L341.399971,92.2410381 L341.399971,88.2426304 L338.046468,88.8184123 L338.046468,89.557121 L337.202229,89.7020731 L337.202229,84.1910714 L341.399971,83.4703374 L341.399971,81.359741 Z M338.046468,87.9976248 L341.399971,87.4218429 L341.399971,84.2911249 L338.046468,84.8669068 L338.046468,87.9976248 Z M342.267661,87.2728644 L345.632889,86.6950693 L345.632889,83.5643513 L342.267661,84.1421464 L342.267661,87.2728644 Z M355.06022,89.4266116 L352.445426,89.8755604 C351.624638,90.016486 351.22597,89.6862674 351.22597,88.9006565 L351.22597,82.170199 L352.070208,82.025247 L352.070208,88.5798214 C352.070208,88.9315874 352.281268,89.0712325 352.703387,88.9987564 L354.907788,88.6202704 C355.189201,88.5719531 355.388535,88.4204729 355.50579,88.1775555 C355.646497,87.871984 355.752027,87.0330775 355.810654,85.6511237 L356.607991,85.7839118 C356.514186,87.406416 356.350029,88.4078206 356.103793,88.8018644 C355.881008,89.133254 355.529241,89.3460826 355.06022,89.4266116 Z M349.490591,83.7227884 L350.299653,83.7480335 C349.971338,85.8211959 349.502316,87.6371041 348.892588,89.1957581 L348.165605,88.863282 C348.775333,87.2694514 349.209178,85.5533872 349.490591,83.7227884 Z M357.041836,82.062781 C357.79227,83.4582544 358.437174,84.965651 359,86.59267 L358.226115,87.0773088 C357.616387,85.3176363 356.948031,83.7790895 356.221048,82.473394 L357.041836,82.062781 Z M352.820643,79.4926659 C353.899392,80.4448263 354.731905,81.298558 355.306456,82.0558741 L354.602924,82.6574145 C353.993196,81.8475103 353.172409,80.9683143 352.117111,80.0473041 L352.820643,79.4926659 Z" id="互联网资源中心" fill="#000000"></path>
                    <path d="M254.691808,34.3421294 L253.895795,34.40684 L253.690761,33.6274946 L254.510896,33.5849447 C254.788295,33.5623941 254.933024,33.3697164 254.933024,33.0078922 L254.933024,24.6979965 L250.181066,25.0842988 L250.181066,24.2882856 L255.777281,23.8333509 L255.777281,33.1925368 C255.777281,33.8920636 255.415456,34.2833016 254.691808,34.3421294 Z M249.517722,26.0066024 C249.855425,26.4253993 250.169006,26.8944003 250.470526,27.4246858 L249.770999,27.8313161 C249.457418,27.2899502 249.131776,26.8219296 248.782013,26.416174 L249.517722,26.0066024 Z M252.110795,25.663134 L252.93093,25.8738611 C252.665593,26.5708364 252.364072,27.1863275 252.038431,27.7434755 L253.316876,27.6395465 L253.316876,30.8839034 L252.038431,30.9878325 L252.038431,32.760771 C252.038431,32.9658048 252.134917,33.0665083 252.32789,33.0508209 L252.810322,33.0116024 C252.991234,32.9968955 253.123903,32.9378671 253.208329,32.8345174 C253.304815,32.6940049 253.37718,32.3262979 253.413363,31.7444378 L254.161133,31.9248652 C254.088768,32.7629437 253.956099,33.2802826 253.751065,33.4778626 C253.582214,33.6363188 253.316876,33.7423146 252.955052,33.7717285 L252.086674,33.8423218 C251.543938,33.8864426 251.2786,33.5944318 251.2786,32.9913915 L251.2786,31.0496016 L250.361979,31.1241168 C250.217249,32.5469967 249.372992,33.6407977 247.853331,34.4156195 L247.407081,33.7403091 C248.74583,33.1490454 249.48154,32.293224 249.614209,31.1849055 L248.396067,31.2839322 L248.396067,28.0395753 L251.206235,27.8111274 C251.543938,27.1323909 251.845458,26.4204134 252.110795,25.663134 Z M252.520863,30.2249656 L252.520863,28.4279054 L249.180019,28.6994936 L249.180019,30.4965538 L252.520863,30.2249656 Z M245.947723,25.9952992 L246.79198,25.9266668 L246.79198,35.0446365 L245.947723,35.1132689 L245.947723,25.9952992 Z M247.720662,23.8370165 C248.215155,24.3636754 248.649344,24.9555407 249.023229,25.6005515 L248.263398,26.0603273 C247.853331,25.3700146 247.407081,24.767069 246.924649,24.2514904 L247.720662,23.8370165 Z M261.735319,23.6022792 L264.412818,23.3846165 L264.412818,22.4921168 L265.269135,22.422504 L265.269135,23.3150036 L267.946634,23.0973409 L267.946634,23.8812933 L265.269135,24.0989561 L265.269135,25.1482462 L268.187851,24.9109743 L268.187851,25.4657714 C267.994878,26.2533504 267.72954,27.0347514 267.403898,27.8210547 L266.559642,27.6484709 C266.849101,27.0942644 267.078256,26.4725952 267.271229,25.7935635 L261.216704,26.2857558 L261.216704,25.4776817 L264.412818,25.2178591 L264.412818,24.1685689 L261.735319,24.3862317 L261.735319,23.6022792 Z M261.204644,29.8205526 L264.654034,29.5401402 C264.714338,29.1975353 264.750521,28.8327697 264.762582,28.4699651 L264.762582,26.4075671 L265.606838,26.3389347 L265.606838,28.4013327 C265.594777,28.7761981 265.558595,29.1289029 265.510352,29.4705274 L268.441128,29.2322749 L268.441128,30.0282881 L265.329439,30.2812475 C265.281196,30.4540207 265.220892,30.6036527 265.172649,30.7523042 C266.39079,31.2563178 267.512445,31.8646615 268.525553,32.6024375 L268.043121,33.3773652 C266.993831,32.5460442 265.920419,31.8975962 264.834946,31.4310407 C264.762582,31.5575315 264.678156,31.6970637 264.581669,31.8255154 C263.954508,32.6483911 262.917278,33.347812 261.494103,33.8976957 L261.023732,33.2122853 C262.422785,32.6884842 263.38765,32.0552501 263.942447,31.3226828 C264.13542,31.0175361 264.304271,30.7022894 264.43694,30.3538018 L261.204644,30.6165658 L261.204644,29.8205526 Z M261.699137,27.8023813 C262.374542,28.0731172 262.989643,28.4211202 263.54444,28.8584512 L263.110251,29.5570922 C262.507211,29.0754398 261.90417,28.7023347 261.277008,28.4397378 L261.699137,27.8023813 Z M262.700184,26.5028614 C263.327346,26.7654583 263.906264,27.0922811 264.43694,27.4953906 L264.014812,28.1568688 C263.460014,27.6954162 262.881096,27.3565326 262.290116,27.1151159 L262.700184,26.5028614 Z M258.888969,23.1582633 C259.684982,23.6965931 260.348326,24.2457079 260.903123,24.803647 L260.312144,25.45473 C259.817651,24.9160102 259.142246,24.3678758 258.285928,23.7982659 L258.888969,23.1582633 Z M257.41755,26.8237569 L259.962381,26.6168792 L259.962381,31.8392085 C260.263901,31.5131767 260.577482,31.1499821 260.915184,30.760705 L261.1564,31.657717 C260.529238,32.3841062 259.877955,33.0280307 259.190489,33.6145926 L258.852786,32.8580931 C259.021638,32.699637 259.118124,32.522942 259.118124,32.3299691 L259.118124,27.5177073 L257.41755,27.6559525 L257.41755,26.8237569 Z" id="阅读" fill="#000000"></path>
                    <path d="M292.487263,26.0544755 L297.571238,25.3452805 L297.571238,28.537544 L295.265715,28.8591556 L295.431239,29.5691038 L298.150575,29.189767 L298.150575,29.8636893 L291.836987,30.7444104 L291.836987,30.0704882 L294.639085,29.6796063 L294.461737,28.9713074 L292.487263,29.2467389 L292.487263,26.0544755 Z M296.790907,28.0670604 L296.790907,27.3458454 L293.255771,27.8389833 L293.255771,28.5601983 L296.790907,28.0670604 Z M293.255771,27.2951162 L296.790907,26.8019783 L296.790907,26.0452936 L293.255771,26.5384315 L293.255771,27.2951162 Z M292.593672,31.3127781 L297.488476,30.6299718 L297.488476,32.911849 L295.443063,33.1971763 L295.443063,35.1361807 C295.443063,35.691871 295.147483,36.01686 294.579969,36.096026 L293.728699,36.2147749 L293.563174,35.4930035 C293.823285,35.4803655 294.083395,35.4677275 294.319859,35.4347417 C294.520853,35.4067038 294.627262,35.2854514 294.627262,35.0726338 L294.627262,33.3109773 L292.593672,33.5946553 L292.593672,31.3127781 Z M296.708145,32.4177191 L296.708145,31.3418081 L293.374003,31.806908 L293.374003,32.882819 L296.708145,32.4177191 Z M292.877429,33.9452379 L293.515881,34.1754025 C293.184832,34.9782673 292.806489,35.7049669 292.357208,36.3351534 L291.754225,35.9818089 C292.17986,35.4022138 292.558202,34.722807 292.877429,33.9452379 Z M296.767261,33.4262677 C297.204719,33.9800502 297.547592,34.4760879 297.784056,34.91603 L297.181073,35.4257789 C296.932786,34.9520165 296.601736,34.4306831 296.176101,33.8752513 L296.767261,33.4262677 Z M301.53201,24.5090114 L302.05223,25.0276025 C301.118198,26.0801059 299.947701,27.0237168 298.552564,27.8331393 L298.197868,27.1495798 C299.545712,26.4176936 300.657093,25.529622 301.53201,24.5090114 Z M301.827589,27.5772802 L302.34781,28.0958713 C301.401954,29.3155488 300.219635,30.3790409 298.800851,31.2863476 L298.446155,30.6027881 C299.817646,29.7730177 300.94085,28.7650648 301.827589,27.5772802 Z M301.993114,30.5454592 L302.655213,30.9496732 C301.662065,32.9917485 300.207811,34.5661022 298.268807,35.6642097 L297.925934,34.9435313 C299.72306,33.912508 301.082728,32.4459343 301.993114,30.5454592 Z M305.362726,29.7916546 C304.913444,30.3272556 304.405047,30.871103 303.861179,31.4198983 L303.601069,30.5694428 C305.185378,28.9887701 306.249465,27.5161358 306.781509,26.141366 L303.873003,26.5470915 L303.873003,25.7312908 L305.717422,25.4740015 C305.516427,24.9699955 305.279963,24.4945838 305.00803,24.0359432 L305.82383,23.6856782 C306.107587,24.2372551 306.332228,24.7616089 306.497753,25.2350931 L306.15488,25.4129777 L307.63278,25.2068164 L307.63278,25.9280315 C307.325376,26.8340065 306.852449,27.7512484 306.213996,28.6797571 C306.864272,28.9910348 307.455432,29.369675 307.975652,29.8055038 L307.490901,30.6061629 C307.065266,30.1926095 306.627808,29.8516445 306.202173,29.5799694 L306.202173,34.5811821 L305.362726,34.6982818 L305.362726,29.7916546 Z M313.532555,23.1896774 L313.532555,29.7279059 L312.669462,29.8483041 L312.669462,24.1258763 L309.347143,24.589327 L309.347143,30.3117547 L308.507696,30.4288544 L308.507696,23.8906259 L313.532555,23.1896774 Z M313.284268,33.4040859 L312.149241,33.5624178 C311.498965,33.6531288 311.179739,33.3547869 311.179739,32.6690414 L311.179739,30.0324683 L312.007363,29.9170179 L312.007363,32.3762431 C312.007363,32.6599998 312.137418,32.783736 312.397528,32.7474516 L313.130567,32.6451956 C313.307915,32.6204563 313.426147,32.5330242 313.497086,32.4048964 C313.591671,32.2380005 313.662611,31.7788233 313.69808,31.0408371 L314.490234,31.1786218 C314.419295,32.1580198 314.28924,32.7791451 314.100069,33.0183513 C313.922721,33.2204386 313.650787,33.3529579 313.284268,33.4040859 Z M310.576756,25.2572478 L311.40438,25.1417974 L311.40438,27.4000282 C311.357087,29.1801051 311.049684,30.6299472 310.48217,31.7613777 C309.914657,32.8218691 309.004271,33.7173723 307.727365,34.4393628 L307.26626,33.7588237 C308.507696,33.0417811 309.37079,32.211991 309.855541,31.245807 C310.304822,30.2609246 310.553109,29.0085001 310.576756,27.5154786 L310.576756,25.2572478 Z" id="影视" fill="#000000"></path>
                    <path d="M105.690326,122.801202 C106.471826,122.924319 107.201227,123.107826 107.852477,123.368893 L107.357527,124.203105 C106.654176,123.898227 105.950826,123.69755 105.23445,123.577096 L105.690326,122.801202 Z M109.884379,121.821209 L110.809155,121.791276 C110.704954,122.094408 110.600754,122.397539 110.470504,122.678766 L115.719583,121.843488 L115.719583,122.403564 C115.563283,123.066661 115.354883,123.738049 115.094383,124.404702 L114.195657,124.27419 C114.417082,123.83518 114.599433,123.350287 114.755733,122.81744 L112.541481,123.16979 C112.489381,123.490681 112.411231,123.789667 112.307031,124.066749 C112.984331,124.961897 114.325907,125.438739 116.331759,125.497277 L115.993109,126.384766 C114.091457,126.296623 112.736856,125.808828 111.929305,124.895331 C111.773005,125.154653 111.60368,125.403023 111.408305,125.642513 C110.77008,126.343223 109.728079,126.99096 108.269278,127.561747 L107.917602,126.784108 C109.194053,126.307463 110.118829,125.78258 110.691929,125.196433 C111.16083,124.691992 111.486455,124.067075 111.642755,123.312803 L109.975554,123.578102 C109.610854,124.105037 109.181028,124.603259 108.686078,125.07277 L108.139027,124.430421 C108.998678,123.668426 109.571779,122.795729 109.884379,121.821209 Z M114.833883,126.868807 L114.833883,130.737235 L113.896082,130.886466 L113.896082,127.890714 L107.396602,128.924965 L107.396602,132.024918 L106.458801,132.174149 L106.458801,128.20152 L114.833883,126.868807 Z M110.275129,128.96186 L111.21293,128.89078 C111.03058,130.573973 110.639829,131.743279 110.027654,132.413793 C109.350353,133.224922 107.839452,133.921224 105.49495,134.476651 L105.13025,133.701085 C107.201227,133.254309 108.568853,132.685005 109.233128,131.98015 C109.819254,131.326805 110.170929,130.320018 110.275129,128.96186 Z M107.500802,124.961806 L108.047852,125.51298 C107.396602,126.293913 106.589051,127.060643 105.6252,127.81317 L105,127.183256 C105.989901,126.465659 106.823501,125.720834 107.500802,124.961806 Z M111.512505,131.226686 C113.205756,131.400092 114.742708,131.689545 116.136384,132.092972 L115.628408,132.955306 C114.143557,132.488237 112.606606,132.172734 111.03058,132.019749 L111.512505,131.226686 Z M118.676261,120.721747 C119.601036,121.251889 120.382537,121.791806 121.020763,122.341496 L120.382537,123.081282 C119.809437,122.547278 119.027936,121.994336 118.038035,121.435482 L118.676261,120.721747 Z M118.441811,123.950182 C119.301461,124.464637 120.030862,124.986795 120.616987,125.531751 L119.978762,126.271536 C119.457761,125.742267 118.741386,125.205012 117.803585,124.663917 L118.441811,123.950182 Z M119.952712,127.226507 L120.760262,127.410603 C120.187162,129.142951 119.535911,130.783535 118.819536,132.343307 L117.94686,132.091424 C118.728361,130.482214 119.392636,128.865607 119.952712,127.226507 Z M123.443415,122.294634 L125.292966,122.000318 C125.449266,121.571671 125.566491,121.149242 125.657666,120.717933 L122.518639,121.217441 L122.518639,125.007719 C122.466539,127.829412 121.971588,130.174524 121.033788,132.017006 L120.330437,131.503729 C121.137988,129.903398 121.567813,127.790074 121.606888,125.152804 L121.606888,120.515901 L129.421894,119.272311 L129.421894,120.118937 L126.543367,120.576993 C126.452192,121.021326 126.334967,121.443756 126.191692,121.857305 L128.731569,121.453139 L128.731569,126.024917 L126.569417,126.368977 L126.569417,130.055055 C126.569417,130.758405 126.217742,131.166042 125.540441,131.27382 L124.44634,131.447922 L124.250965,130.632386 C124.589615,130.617573 124.915241,130.591806 125.227841,130.542063 C125.514391,130.496464 125.670691,130.302268 125.670691,129.976642 L125.670691,126.51199 L123.443415,126.866413 L123.443415,122.294634 Z M127.897968,125.402116 L127.897968,124.229865 L124.277015,124.806061 L124.277015,125.978312 L127.897968,125.402116 Z M124.277015,124.102711 L127.897968,123.526515 L127.897968,122.328214 L124.277015,122.90441 L124.277015,124.102711 Z M123.76904,127.739372 L124.60264,127.789073 C124.26399,128.989162 123.79509,130.066704 123.195939,131.008671 L122.440489,130.659984 C123.052664,129.741994 123.495515,128.772798 123.76904,127.739372 Z M128.197543,126.969546 C128.731569,127.783293 129.200469,128.672529 129.591219,129.6263 L128.796694,130.104407 C128.379893,129.050581 127.910993,128.148321 127.416043,127.367431 L128.197543,126.969546 Z M132.691172,118.270151 L133.615948,118.122993 L133.615948,120.58472 L135.126849,120.344293 L135.126849,121.243019 L133.615948,121.483446 L133.615948,122.486372 C134.254173,123.036062 134.892399,123.663903 135.530624,124.356869 L134.996599,125.236373 C134.462573,124.500776 134.006698,123.922068 133.615948,123.489297 L133.615948,130.014828 L132.691172,130.161986 L132.691172,123.675531 C132.274371,124.966206 131.740346,126.171336 131.089096,127.290919 L130.68532,126.33922 C131.623121,124.913539 132.287396,123.336007 132.691172,121.630604 L131.102121,121.883467 L131.102121,120.984741 L132.691172,120.731878 L132.691172,118.270151 Z M136.53355,123.546025 L137.3932,123.604605 C136.9764,125.494431 136.364225,127.154847 135.582724,128.607757 L134.775173,128.215261 C135.582724,126.77123 136.16885,125.21916 136.53355,123.546025 Z M141.248604,122.730601 C141.795654,124.115376 142.264554,125.616786 142.655305,127.221808 L141.808679,127.734256 C141.378854,125.992177 140.909953,124.464716 140.401978,123.138848 L141.248604,122.730601 Z M138.331001,129.134279 L137.00245,129.345689 L136.8201,128.50203 C137.2369,128.461755 137.627651,128.425626 138.005376,128.365519 C138.357051,128.309558 138.539401,128.085165 138.539401,127.70744 L138.539401,122.145761 L135.361299,122.651487 L135.361299,121.752761 L142.66833,120.590005 L142.66833,121.488731 L139.477202,121.99653 L139.477202,127.79266 C139.477202,128.561135 139.086452,129.014065 138.331001,129.134279 Z M136.051624,118.477833 L141.991029,117.532706 L141.991029,118.418406 L136.051624,119.363534 L136.051624,118.477833 Z M152.788763,122.49631 L153.700513,122.5987 C153.361863,123.733665 152.945063,124.776865 152.450112,125.715276 L155.25049,125.269657 L155.25049,126.142333 L144.257381,127.891648 L144.257381,127.018972 L151.447187,125.87487 C151.955162,124.908336 152.398012,123.78284 152.788763,122.49631 Z M146.562808,123.643336 C146.940533,124.28658 147.279183,125.053267 147.578759,125.917347 L146.732133,126.273494 C146.471633,125.481346 146.132982,124.740709 145.716182,124.051584 L146.562808,123.643336 Z M149.571585,122.904054 C149.87116,123.611834 150.144686,124.427959 150.379136,125.367527 L149.545535,125.721602 C149.32411,124.871136 149.050585,124.068036 148.711934,123.314374 L149.571585,122.904054 Z M146.367433,122.163525 L153.127413,121.08782 L153.127413,121.921421 L146.367433,122.997125 L146.367433,122.163525 Z M145.846432,118.091452 C145.507782,118.796592 145.130057,119.455849 144.700231,120.071297 L143.892681,119.691826 C144.700231,118.573421 145.286357,117.386051 145.651057,116.129716 L146.562808,116.180005 C146.458608,116.535237 146.341383,116.866491 146.224157,117.197745 L149.649735,116.652638 L149.649735,117.486239 L147.774134,117.7847 C147.982534,118.207413 148.164884,118.608222 148.295134,118.978246 L147.435483,119.427641 C147.266158,118.907535 147.070783,118.404599 146.836333,117.933931 L145.846432,118.091452 Z M151.329961,117.218867 C151.095511,117.71205 150.848036,118.181256 150.574511,118.615532 L149.779985,118.233988 C150.392161,117.302973 150.835011,116.320752 151.108536,115.261276 L152.007262,115.313638 C151.903062,115.66887 151.798862,115.998051 151.694662,116.327233 L155.497965,115.722019 L155.497965,116.55562 L153.426988,116.885171 C153.713538,117.334523 153.934964,117.755163 154.104289,118.171069 L153.244638,118.620464 C153.010188,118.071647 152.749688,117.539999 152.463137,117.038547 L151.329961,117.218867 Z M149.441335,118.808877 L150.040485,118.713536 C151.655587,119.641803 153.531188,120.281142 155.654265,120.620601 L155.19839,121.500695 C153.062288,121.111208 151.251811,120.461506 149.74091,119.529682 C148.360259,120.843484 146.536758,122.071455 144.270406,123.226622 L143.827556,122.489541 C146.067857,121.377595 147.943459,120.154358 149.441335,118.808877 Z M160.773094,113.67127 L161.64577,113.936178 C161.189894,115.102822 160.603769,116.212042 159.900418,117.287816 L159.900418,125.871297 L158.962617,126.020528 L158.962617,118.583247 C158.376492,119.314742 157.738267,120.028477 157.047941,120.711428 L156.748366,119.782223 C158.597917,117.898856 159.939493,115.861872 160.773094,113.67127 Z M166.777624,124.542489 L164.289847,124.938365 C163.378096,125.08345 162.922221,124.687092 162.922221,123.775342 L162.922221,119.802713 C162.37517,120.202365 161.815095,120.578039 161.241994,120.942761 L160.825194,120.123385 C161.554595,119.668666 162.257945,119.205068 162.922221,118.708613 L162.922221,113.485583 L163.860021,113.336353 L163.860021,117.986281 C165.227647,116.856903 166.425948,115.624218 167.454924,114.301253 L168.106175,114.940046 C166.894849,116.435303 165.475123,117.820448 163.860021,119.093407 L163.860021,123.495861 C163.860021,123.899636 164.068421,124.074874 164.511272,124.004404 L166.621323,123.668635 C166.959974,123.614746 167.220474,123.456068 167.376774,123.222796 C167.520049,122.991596 167.611224,122.221637 167.663324,120.923871 L168.536,121.071553 C168.444825,122.583938 168.288525,123.520561 168.0671,123.868396 C167.832649,124.218304 167.402824,124.443001 166.777624,124.542489 Z" id="资源标签化" fill="#000000"></path>
                    <path d="M429.152985,68.2039329 L429.152985,69.0670533 C428.002158,69.8428921 426.701223,70.5448014 425.25018,71.1477631 L425.137599,70.2667225 C426.663696,69.6631985 428.002158,68.9797717 429.152985,68.2039329 Z M427.151547,59.9087847 L428.014667,60.1087177 C427.389218,61.8187954 426.751259,63.2058178 426.100791,64.269785 C426.651187,64.0988755 427.201583,63.9029481 427.751978,63.7070207 C427.97714,63.2425013 428.202302,62.765473 428.439973,62.2487391 L429.253057,62.4198592 C428.152266,64.6880629 427.23911,66.335666 426.513588,67.3626684 C427.389218,66.9850091 428.264847,66.5322959 429.152985,65.9898412 L429.152985,66.8279437 C427.839541,67.6070855 426.576133,68.1898782 425.37527,68.5991614 L425.12509,67.8171386 C425.287707,67.7137637 425.425306,67.5897279 425.537887,67.4700491 C426.013228,66.8869051 426.601151,65.9464115 427.289146,64.6257289 C426.61366,64.8684597 425.925665,65.113369 425.237671,65.3332603 L425,64.549059 C425.150108,64.4603716 425.275198,64.3260053 425.400288,64.1290941 C426.075773,62.8731349 426.651187,61.4719872 427.151547,59.9087847 Z M429.578291,64.9775967 L429.378147,64.2118777 C429.453201,64.1737885 429.503237,64.1400564 429.553273,64.1188333 C429.978579,63.7320383 430.516466,62.8377858 431.191951,61.4192098 L429.052913,61.7917391 L429.052913,60.9286187 L432.242706,60.3730925 C432.067581,59.9282502 431.879946,59.5356225 431.679802,59.1827003 L432.592958,58.8735594 C432.780593,59.2661871 432.968228,59.7213598 433.143354,60.216238 L435.957877,59.7260678 L435.957877,60.5891882 L432.130126,61.2558197 C431.57973,62.4399576 431.091879,63.3129869 430.666573,63.8874167 C431.82991,63.5847411 432.993246,63.2445385 434.144073,62.8564785 C433.868875,62.5041185 433.56866,62.1436066 433.255935,61.7977822 L433.943929,61.2526571 C434.794541,62.1927991 435.457517,63.0280201 435.92035,63.7730079 L435.219847,64.3828565 C435.044721,64.0881222 434.857086,63.8080754 434.644433,63.5198767 C433.093318,64.0401947 431.404604,64.5219318 429.578291,64.9775967 Z M430.59152,65.3140041 L431.467149,65.1615067 C431.404604,66.7485324 431.20446,67.9467252 430.879226,68.7413976 C430.516466,69.5801326 429.916034,70.3476789 429.065422,71.0462148 L428.490009,70.4334149 C429.228039,69.8295396 429.753417,69.1876455 430.066142,68.4952236 C430.366358,67.7924712 430.541484,66.7362343 430.59152,65.3140041 Z M435.044721,69.8047316 L434.169091,69.957229 C433.418552,70.087941 433.043282,69.7905363 433.043282,69.0650148 L433.043282,64.7744304 L433.906402,64.6241116 L433.906402,68.764588 C433.906402,69.0272768 433.993965,69.149626 434.194109,69.1397874 L435.007194,68.9981827 C435.282392,68.925237 435.445008,68.7468081 435.495044,68.4628962 C435.54508,68.1039302 435.582607,67.559508 435.582607,66.8214774 L436.358165,66.9616061 C436.358165,68.1374514 436.270602,68.8907317 436.107985,69.1942504 C435.945368,69.4727512 435.595116,69.6838581 435.044721,69.8047316 Z M437.508992,63.3086991 L448.754576,61.3501968 L448.754576,62.2508443 L437.508992,64.2093466 L437.508992,63.3086991 Z M450.868596,56.0659906 C451.619135,56.1729494 452.319639,56.3386583 452.945089,56.5799834 L452.469747,57.3882892 C451.794261,57.1056423 451.118776,56.9230674 450.430781,56.8177249 L450.868596,56.0659906 Z M454.896491,55.0642868 L455.78463,55.0221918 C455.684558,55.3148179 455.584486,55.607444 455.459396,55.8794092 L460.50052,55.0014599 L460.50052,55.5393465 C460.350412,56.1784296 460.150268,56.8262267 459.900088,57.470229 L459.036968,57.3578591 C459.249621,56.9330452 459.424747,56.464731 459.574854,55.9507379 L457.448326,56.3210887 C457.39829,56.6300187 457.323236,56.9182877 457.223164,57.1858958 C457.873631,58.0358045 459.162058,58.474392 461.088442,58.5016585 L460.763209,59.3588759 C458.936896,59.3016721 457.635961,58.8527541 456.860403,57.9871039 C456.710295,58.2384081 456.547678,58.479382 456.360043,58.7122038 C455.747103,59.3943657 454.746383,60.0314811 453.345376,60.6007107 L453.007634,59.8589557 C454.233515,59.3827705 455.121653,58.8653338 455.672049,58.2941366 C456.122373,57.8029126 456.435097,57.1980536 456.585205,56.4714076 L454.984054,56.75026 C454.633803,57.2615827 454.221006,57.746271 453.745664,58.2043251 L453.220286,57.59532 C454.04588,56.8511051 454.596276,56.0047101 454.896491,55.0642868 Z M459.649908,59.8404723 L459.649908,63.555643 L458.749261,63.7124974 L458.749261,60.8354292 L452.507274,61.9225178 L452.507274,64.8996579 L451.606626,65.0565124 L451.606626,61.2412698 L459.649908,59.8404723 Z M455.271761,61.9164034 L456.172409,61.8346029 C455.997283,63.4537444 455.622013,64.5823648 455.03409,65.2351515 C454.383623,66.0239209 452.93258,66.7144456 450.680961,67.2817077 L450.330709,66.5421311 C452.319639,66.0831632 453.633083,65.5166744 454.271042,64.8301555 C454.833946,64.1942348 455.171689,63.2222579 455.271761,61.9164034 Z M452.607346,58.1148649 L453.132723,58.6363071 C452.507274,59.3957014 451.731716,60.1437111 450.806051,60.8803363 L450.205619,60.2844024 C451.156303,59.5809471 451.956878,58.8535983 452.607346,58.1148649 Z M456.460115,64.0736422 C458.086284,64.2157385 459.562345,64.4715401 460.900808,64.8388686 L460.412957,65.674371 C458.986932,65.2472383 457.510871,64.9664187 455.997283,64.8422426 L456.460115,64.0736422 Z M463.340061,53.881483 C464.2282,54.3772747 464.978739,54.8845212 465.59168,55.4032226 L464.978739,56.1229114 C464.428343,55.6183353 463.677804,55.0985798 462.72712,54.5761538 L463.340061,53.881483 Z M463.114899,56.9853997 C463.940493,57.467066 464.640996,57.9580087 465.203901,58.4729153 L464.59096,59.1926041 C464.090601,58.6918229 463.402606,58.1861926 462.501959,57.6800705 L463.114899,56.9853997 Z M464.565942,60.1101176 L465.3415,60.2752643 C464.791104,61.9472528 464.165655,63.5322406 463.47766,65.0405581 L462.639558,64.8112502 C463.390097,63.254513 464.028056,61.6923647 464.565942,60.1101176 Z M467.918352,55.3232491 L469.694629,55.0138972 C469.844737,54.599976 469.957318,54.1925905 470.044881,53.777053 L467.030214,54.3020797 L467.030214,57.9421965 C466.980178,60.6528529 466.504836,62.9122018 465.604189,64.6952253 L464.928703,64.2124345 C465.704261,62.6638493 466.117057,60.6280459 466.154584,58.0946938 L466.154584,53.6414926 L473.65998,52.3343721 L473.65998,53.1474566 L470.895492,53.6289126 C470.807929,54.0569591 470.695348,54.4643447 470.55775,54.8635783 L472.997003,54.4387642 L472.997003,58.8294204 L470.92051,59.1910571 L470.92051,62.7311019 C470.92051,63.4065875 470.582768,63.8031507 469.9323,63.9164345 L468.881545,64.0994313 L468.69391,63.3190249 C469.019144,63.2999099 469.331868,63.2704646 469.632084,63.2181798 C469.907282,63.170252 470.05739,62.9814927 470.05739,62.6687679 L470.05739,59.341376 L467.918352,59.7139053 L467.918352,55.3232491 Z M472.196428,58.2433251 L472.196428,57.1175158 L468.718928,57.7231483 L468.718928,58.8489576 L472.196428,58.2433251 Z M468.718928,57.0476627 L472.196428,56.4420302 L472.196428,55.2912029 L468.718928,55.8968354 L468.718928,57.0476627 Z M468.231077,60.5475804 L469.031653,60.5832801 C468.706419,61.7407133 468.256095,62.7823329 467.680681,63.69563 L466.95516,63.3716613 C467.543082,62.4812037 467.968388,61.544013 468.231077,60.5475804 Z M472.484134,59.7443338 C472.997003,60.5181344 473.447327,61.3653725 473.822597,62.2757179 L473.059548,62.7463513 C472.65926,61.7402911 472.208937,60.8805439 471.733595,60.1377347 L472.484134,59.7443338 Z M478.926265,51.1795383 L479.714332,51.5176324 C479.126409,52.6582698 478.538487,53.6112724 477.950564,54.3766401 C477.325114,55.2110884 476.487012,56.0700627 475.448766,56.9513846 L474.960915,56.2482809 C475.811526,55.6122899 476.587084,54.8392622 477.275078,53.9313763 C477.87551,53.1263031 478.425906,52.2173631 478.926265,51.1795383 Z M479.339062,56.6866572 L476.812246,57.1267211 L476.812246,56.2636007 L484.280114,54.9630157 C484.242587,56.5331753 484.167533,57.8096548 484.042443,58.7946325 C483.917353,59.7671012 483.717209,60.4774434 483.429503,60.9028194 C483.154305,61.313508 482.703981,61.5920791 482.078531,61.7385327 L479.801895,62.135026 L479.551715,61.2904582 C480.277237,61.1891212 480.965231,61.0818108 481.615699,60.968527 C482.291184,60.8508862 482.728999,60.4869307 482.941652,59.874482 C483.166814,59.2348367 483.304413,57.9474646 483.366958,55.9851692 L480.252219,56.5276242 C479.952003,57.9433892 479.539206,59.1035631 479.001319,59.9978156 C478.363361,61.0095683 477.400168,61.9778909 476.124251,62.913114 L475.548837,62.262787 C476.699665,61.4369122 477.575294,60.5964203 478.163217,59.7434896 C478.688595,58.9264697 479.076373,57.9082517 479.339062,56.6866572 Z M482.453801,50.4025748 C483.179323,52.2026046 484.467749,53.5043126 486.331589,54.2930113 L485.731157,55.1105935 C483.792263,54.1973671 482.441292,52.8189888 481.678244,50.9754586 L482.453801,50.4025748 Z M493.63684,52.5203876 L493.63684,53.9589217 L492.711175,54.1201332 L492.711175,51.8434967 L492.636121,51.8565679 C491.885581,53.1130892 490.459556,54.3371435 488.370554,55.5140432 L487.882704,54.8234485 C489.821598,53.8603261 491.147551,52.9163889 491.848054,51.9938155 L487.895213,52.6822323 L487.895213,51.8441299 L492.711175,51.0053942 L492.711175,48.5035957 L493.63684,48.3423842 L493.63684,50.8441826 L498.452802,50.005447 L498.452802,50.8435494 L493.63684,51.6822851 L493.63684,51.907447 C495.313045,52.1158831 496.86416,52.4336675 498.265167,52.8776662 L497.777317,53.7131686 C496.426345,53.1603838 495.037847,52.7642425 493.63684,52.5203876 Z M493.011391,56.7322638 C492.761211,57.2636851 492.460995,57.7537847 492.085725,58.1944105 C491.272641,59.1365907 489.909161,59.9995005 487.995285,60.795649 L487.645033,60.0185455 C489.358765,59.3448165 490.597155,58.591255 491.360204,57.7578608 C491.660419,57.4178692 491.923108,57.0468862 492.123252,56.6492688 L487.795141,57.4030417 L487.795141,56.5649392 L492.486013,55.7479889 C492.611103,55.3509338 492.698666,54.9479053 492.748702,54.5138854 L493.674367,54.3526738 C493.624331,54.7866937 493.536768,55.2022312 493.436696,55.5824203 L498.552874,54.6913998 L498.552874,55.5295022 L493.799457,56.3573452 C494.975302,57.4159712 496.61398,58.0062127 498.728,58.1384001 L498.277676,59.0174028 C495.951004,58.8096696 494.187236,58.0535786 493.011391,56.7322638 Z M490.121813,49.1421872 C490.484574,49.5793694 490.809808,50.1106501 491.085006,50.71319 L490.321957,51.0462245 C490.071777,50.5143815 489.746544,50.0081187 489.346256,49.5399452 L490.121813,49.1421872 Z M496.188675,48.0605801 L496.976741,48.1234763 C496.714052,48.8447111 496.3638,49.4936327 495.938495,50.0930806 L495.187955,49.9485948 C495.575734,49.4307365 495.913477,48.7965024 496.188675,48.0605801 Z" id="统一资源分类" fill="#000000"></path>
                    <path d="M419.697258,155.143748 C420.486607,155.244492 421.223332,155.407806 421.881123,155.651822 L421.381202,156.509363 C420.670788,156.222672 419.960374,156.041228 419.236805,155.941205 L419.697258,155.143748 Z M423.93343,154.027211 L424.867493,153.96904 C424.762246,154.278364 424.657,154.587687 424.525442,154.875673 L429.827234,153.873433 L429.827234,154.439133 C429.669364,155.113611 429.458871,155.798037 429.195755,156.479255 L428.288004,156.374583 C428.511653,155.924474 428.695834,155.429204 428.853704,154.886284 L426.617216,155.309065 C426.564593,155.634752 426.485658,155.939102 426.380411,156.222113 C427.064513,157.10579 428.419562,157.546892 430.445557,157.545421 L430.103506,158.452054 C428.182758,158.420474 426.814553,157.968702 425.998893,157.070428 C425.841023,157.337076 425.669997,157.593055 425.47266,157.840852 C424.828025,158.56788 423.77556,159.253601 422.302109,159.87419 L421.946902,159.099366 C423.236172,158.579373 424.170235,158.021281 424.74909,157.411934 C425.2227,156.888262 425.551595,156.247233 425.709465,155.480664 L424.025521,155.798993 C423.657158,156.342237 423.223016,156.858448 422.723095,157.347627 L422.170551,156.715353 C423.038835,155.919735 423.61769,155.020961 423.93343,154.027211 Z M428.932639,158.975976 L428.932639,162.883252 L427.98542,163.062312 L427.98542,160.036475 L421.42067,161.277462 L421.42067,164.408546 L420.473451,164.587606 L420.473451,160.575083 L428.932639,158.975976 Z M424.328104,161.227768 L425.275323,161.127642 C425.091141,162.833248 424.696467,164.0261 424.078144,164.721843 C423.394042,165.561578 421.867967,166.310517 419.499921,166.942349 L419.131558,166.170012 C421.223332,165.656185 422.604693,165.039848 423.275639,164.307846 C423.867651,163.630234 424.222858,162.602712 424.328104,161.227768 Z M421.525916,157.271355 L422.07846,157.811538 C421.42067,158.619988 420.605009,159.418813 419.631479,160.208015 L419,159.590663 C419.999842,158.835955 420.841814,158.058467 421.525916,157.271355 Z M425.577907,163.477956 C427.288162,163.601951 428.840548,163.847879 430.24822,164.213255 L429.735144,165.099595 C428.235381,164.672693 426.682995,164.400453 425.091141,164.293543 L425.577907,163.477956 Z M432.813604,152.651106 C433.747667,153.158635 434.537015,153.680364 435.18165,154.216294 L434.537015,154.98279 C433.95816,154.460736 433.168811,153.925851 432.168969,153.391289 L432.813604,152.651106 Z M432.576799,155.919045 C433.445083,156.412697 434.181808,156.918063 434.77382,157.450785 L434.129185,158.21728 C433.602953,157.698435 432.879383,157.177426 431.932164,156.659228 L432.576799,155.919045 Z M434.102874,159.182628 L434.918534,159.344177 C434.339678,161.111235 433.681887,162.787969 432.958318,164.385046 L432.076878,164.156997 C432.866227,162.508018 433.537174,160.855109 434.102874,159.182628 Z M437.628631,154.095773 L439.496757,153.742627 C439.654627,153.304953 439.773029,152.87474 439.86512,152.436346 L436.694569,153.0357 L436.694569,156.864042 C436.641945,159.715645 436.142025,162.099261 435.194806,163.988577 L434.484392,163.491393 C435.300053,161.850595 435.734194,159.703063 435.773662,157.038128 L435.773662,152.354659 L443.66715,150.86249 L443.66715,151.717618 L440.759715,152.267233 C440.667624,152.718784 440.549222,153.148997 440.404508,153.571027 L442.969892,153.086073 L442.969892,157.703763 L440.786027,158.116596 L440.786027,161.839691 C440.786027,162.550105 440.43082,162.97246 439.746717,163.101781 L438.641629,163.310685 L438.444292,162.492861 C438.786343,162.467668 439.115238,162.431806 439.430978,162.372119 C439.720406,162.317406 439.878275,162.116537 439.878275,161.787642 L439.878275,158.288196 L437.628631,158.713464 L437.628631,154.095773 Z M442.12792,157.09989 L442.12792,155.915867 L438.470603,156.607239 L438.470603,157.791262 L442.12792,157.09989 Z M438.470603,155.896825 L442.12792,155.205453 L442.12792,153.995119 L438.470603,154.68649 L438.470603,155.896825 Z M437.957527,159.585353 L438.799499,159.610369 C438.457448,160.832742 437.983838,161.935269 437.378671,162.904797 L436.615634,162.575431 C437.233957,161.629728 437.681255,160.63742 437.957527,159.585353 Z M442.430503,158.674012 C442.969892,159.479798 443.443501,160.363798 443.838175,161.315343 L443.035671,161.822254 C442.614685,160.770436 442.141075,159.87328 441.641154,159.0995 L442.430503,158.674012 Z M449.745135,151.200127 L452.08687,150.757451 L452.08687,148.770923 L453.007777,148.596836 L453.007777,150.583364 L455.809965,150.053644 L455.809965,154.0267 L456.836119,153.832718 L456.836119,154.753625 L453.244582,155.432562 C454.060242,157.067562 455.362668,158.268493 457.138702,159.037844 L456.494068,159.89643 C454.704877,159.011164 453.389296,157.720628 452.560479,156.009181 C451.968468,158.226023 450.7976,159.986592 449.047877,161.317198 L448.469021,160.65043 C450.152966,159.437506 451.258054,157.794619 451.757975,155.713587 L449.205747,156.196055 L449.205747,155.275148 L451.942156,154.757863 C452.034247,154.135287 452.08687,153.467548 452.08687,152.783446 L452.08687,151.63889 L449.745135,152.081567 L449.745135,151.200127 Z M453.007777,151.464804 L453.007777,152.412022 C453.007777,153.175059 452.955154,153.895421 452.849907,154.586263 L454.889058,154.200786 L454.889058,151.10917 L453.007777,151.464804 Z M445.45634,152.537105 L446.206222,152.447972 C446.166754,153.771014 446.008884,155.063815 445.732612,156.300065 L444.956419,156.223146 C445.245847,155.037033 445.416873,153.807524 445.45634,152.537105 Z M448.771605,151.620966 C449.139968,152.393303 449.455707,153.293991 449.745135,154.331211 L448.968942,154.662122 C448.732138,153.720201 448.429554,152.830182 448.061191,151.97891 L448.771605,151.620966 Z M446.864012,149.771397 L447.798075,149.594823 L447.798075,161.566613 L446.864012,161.743187 L446.864012,149.771397 Z M462.269469,147.89849 L465.624202,147.264319 L465.624202,146.198698 L466.505641,146.032073 L466.505641,147.097693 L469.80775,146.47347 L469.80775,147.341753 L466.505641,147.965977 L466.505641,149.084221 L469.373609,148.542067 L469.373609,151.896799 L466.505641,152.438954 L466.505641,156.464632 L465.624202,156.631258 L465.624202,152.987098 C464.953255,154.284799 463.913946,155.48111 462.506274,156.57603 L461.914263,155.938061 C463.361402,154.927771 464.387555,153.85235 465.005879,152.722466 L462.756235,153.147734 L462.756235,149.793001 L465.624202,149.250847 L465.624202,148.132603 L462.269469,148.766774 L462.269469,147.89849 Z M468.505325,151.218965 L468.505325,149.535021 L466.505641,149.913037 L466.505641,151.596981 L468.505325,151.218965 Z M465.624202,151.763607 L465.624202,150.079663 L463.637674,150.455192 L463.637674,152.139136 L465.624202,151.763607 Z M467.544951,152.637159 C468.479013,153.210467 469.268362,153.811132 469.912997,154.452308 L469.281518,155.203161 C468.702662,154.575861 467.926469,153.959554 466.926627,153.332901 L467.544951,152.637159 Z M459.269944,147.597231 C460.177695,148.109734 460.940732,148.649593 461.559056,149.216809 L460.888109,150.001434 C460.335565,149.448095 459.585684,148.892593 458.625309,148.337414 L459.269944,147.597231 Z M466.939783,157.763923 C466.216213,157.900706 465.426865,158.036767 464.584893,158.182775 C463.742921,158.328784 463.045662,158.381658 462.51943,158.336422 C461.993197,158.27803 461.532744,158.036178 461.124914,157.639664 C460.940732,157.450832 460.769707,157.377916 460.611837,157.407759 C460.296098,157.467446 459.783021,158.169604 459.072607,159.514234 L458.362193,159.003895 C459.046295,157.769485 459.664618,156.981652 460.190851,156.64537 L460.190851,152.646002 L458.322726,152.999149 L458.322726,152.130865 L461.07229,151.611093 L461.07229,156.531367 C461.177537,156.590407 461.282783,156.662602 461.401186,156.771777 C461.716925,157.093609 462.058976,157.305221 462.427339,157.406612 C462.835169,157.513698 463.427181,157.507032 464.21653,157.384126 C464.913788,157.265474 465.782072,157.114491 466.808225,156.920509 C467.439704,156.801136 468.071183,156.668607 468.715818,156.53359 C469.360453,156.398574 469.860374,156.290914 470.202425,156.199942 L469.96562,157.191926 L466.939783,157.763923 Z M471.557474,147.642468 L473.20195,147.3316 L473.20195,144.766216 L474.136013,144.589643 L474.136013,147.155027 L475.491062,146.898871 L475.491062,147.806622 L474.136013,148.062778 L474.136013,148.733724 C474.662245,149.213102 475.201634,149.768928 475.754178,150.401202 L475.21479,151.305671 C474.793804,150.635372 474.438597,150.084196 474.136013,149.667787 L474.136013,156.574589 L473.20195,156.751162 L473.20195,150.291658 C472.780964,151.686821 472.254732,152.970323 471.596941,154.173447 L471.189111,153.211233 C472.110018,151.695253 472.780964,150.042345 473.175639,148.244325 L471.557474,148.550219 L471.557474,147.642468 Z M477.424966,147.796248 C476.925045,148.416984 476.411969,148.961273 475.859424,149.460399 L475.346348,148.754885 C476.898734,147.343181 478.109069,145.654087 478.951041,143.692576 L479.819324,143.528437 C480.529738,145.051775 481.740073,146.270115 483.463484,147.194127 L482.950408,148.093623 C482.384708,147.792731 481.871631,147.45558 481.424333,147.079683 L481.424333,147.882188 L477.424966,148.63822 L477.424966,147.796248 Z M481.358554,147.026339 C480.529738,146.327889 479.871947,145.505017 479.385182,144.544569 C478.806327,145.772239 478.161692,146.841318 477.451278,147.764962 L481.358554,147.026339 Z M475.648931,155.038788 L480.200843,154.178304 C480.740231,152.668667 481.21384,150.855725 481.621671,148.726323 L482.529422,148.791528 C482.161059,150.716132 481.68745,152.450139 481.134906,154.00173 L483.187212,153.613767 L483.187212,154.534674 L475.648931,155.959694 L475.648931,155.038788 Z M477.122383,149.932066 C477.490745,150.96752 477.806485,152.183947 478.082757,153.57886 L477.253941,153.959187 C476.990824,152.693345 476.675085,151.503229 476.306722,150.362529 L477.122383,149.932066 Z M479.148378,149.075467 C479.490429,150.076427 479.793013,151.242718 480.056129,152.574339 L479.187845,152.962127 C478.964196,151.741447 478.674768,150.585825 478.332717,149.492774 L479.148378,149.075467 Z M485.58157,143.452152 L490.015079,142.614051 L490.015079,141.574742 L490.98861,141.390707 L490.98861,142.430017 L495.422119,141.591915 L495.422119,142.460199 L490.98861,143.2983 L490.98861,144.442856 L495.961507,143.50279 L495.961507,145.910304 L495.0406,146.08439 L495.0406,144.505692 L490.015079,145.455706 L490.738649,145.674131 C489.9493,146.454827 489.13364,147.148406 488.278512,147.770511 C489.488847,147.5154 490.475533,147.302568 491.212258,147.110675 C491.672712,146.707893 492.146321,146.289467 492.61993,145.857886 L493.382968,146.22672 C491.830582,147.677891 490.172949,148.872686 488.383759,149.84239 C490.094014,149.466464 491.791114,149.053557 493.50137,148.611851 C493.211942,148.350825 492.909358,148.105441 492.593619,147.849388 L493.277721,147.285925 C494.238095,148.03844 494.974821,148.714832 495.487898,149.328255 L494.777484,149.975626 C494.566991,149.699678 494.330186,149.428704 494.06707,149.162703 C493.001449,149.429925 492.001607,149.684712 491.054389,149.916395 L491.054389,152.429156 C491.054389,153.086946 490.686026,153.498632 489.975612,153.632927 L488.778433,153.859239 L488.581096,153.015104 C488.949459,152.984937 489.317821,152.941614 489.659872,152.876954 C489.9493,152.822241 490.10717,152.647683 490.10717,152.384567 L490.10717,150.134923 C488.660031,150.474266 487.331294,150.778071 486.120959,151.033182 L485.936777,150.212872 C486.213049,150.173801 486.489322,150.134731 486.752438,150.084992 C487.831214,149.578479 488.936303,148.895966 490.094014,148.019324 C489.199419,148.214748 488.186421,148.445711 487.041866,148.688387 L486.857684,147.999634 C487.055021,147.922863 487.252359,147.806623 487.449696,147.664073 C488.304824,147.015656 489.120484,146.28261 489.883521,145.480576 L485.963089,146.221686 L485.963089,147.787228 L485.042182,147.961314 L485.042182,145.566956 L490.015079,144.62689 L490.015079,143.482334 L485.58157,144.320436 L485.58157,143.452152 Z M492.448905,150.350037 C493.817109,150.591315 495.053756,150.96271 496.172,151.461733 L495.685235,152.316787 C494.4749,151.756238 493.238254,151.358532 491.975296,151.136825 L492.448905,150.350037 Z M488.304824,151.107114 L488.857368,151.620985 C487.870682,152.596855 486.634035,153.475263 485.147429,154.269365 L484.752754,153.502001 C486.186738,152.796782 487.370761,151.994101 488.304824,151.107114 Z" id="资源快速检索" fill="#000000"></path>
                    <polygon id="Fill-73" fill="#FFB65A" points="197.564654 103.057057 215 100.803045 207.936431 99 194.709707 100.978329 191.524639 99.7883692 182 104.000137 203.081538 105"></polygon>
                </g>
            </g>
        </g>
    </g>
</svg>