<?xml version="1.0" encoding="UTF-8"?>
<svg width="528px" height="236px" viewBox="0 0 528 236" version="1.1" xmlns="http://www.w3.org/2000/svg" xmlns:xlink="http://www.w3.org/1999/xlink">
    <!-- Generator: Sketch 48.1 (47250) - http://www.bohemiancoding.com/sketch -->
    <title>企业商情中心</title>
    <desc>Created with Sketch.</desc>
    <defs></defs>
    <g id="爬虫" stroke="none" stroke-width="1" fill="none" fill-rule="evenodd" transform="translate(-51.000000, -1448.000000)">
        <g id="应用场景" transform="translate(-1.000000, 1223.000000)">
            <g id="Group-9" transform="translate(1.000000, 115.000000)">
                <g id="企业商情中心" transform="translate(51.000000, 110.000000)">
                    <polygon id="Fill-1" fill="#B2C9E5" points="219.152344 133.164062 214.026042 120.557292 208.926725 121.715199 175.135965 108 158 111.21944 195.844554 126.762547 185.971354 128.72526"></polygon>
                    <g id="Group-76">
                        <path d="M178.636286,115.266555 L178.873262,114.89178 C179.192557,115.050499 179.481917,115.209217 179.742176,115.369597 L179.476097,115.795062 C179.254919,115.640499 178.975536,115.46433 178.636286,115.266555 Z M176.400393,116.571203 L177.834724,116.308611 C177.84387,115.985358 177.848028,115.588977 177.843039,115.11947 L178.305351,115.03471 C178.305351,115.408654 178.29953,115.805865 178.290384,116.225513 L179.9725,115.918048 L179.9725,116.378414 L178.326138,116.680062 C178.576418,117.870865 179.152645,118.599639 180.056481,118.86971 C179.929262,119.044217 179.805369,119.216231 179.682308,119.385752 C178.906522,119.057513 178.378522,118.416823 178.099971,117.458696 C177.876299,118.434273 177.320859,119.289358 176.436147,120.025611 C176.345514,119.899301 176.244903,119.774654 176.133483,119.651668 C177.133773,118.881344 177.690875,117.921555 177.808947,116.774794 L176.400393,117.0324 L176.400393,116.571203 Z M174.25347,114.692344 L175.879877,114.394851 L175.879877,113.680203 L176.341357,113.596273 L176.341357,114.31009 L177.961943,114.013428 L177.961943,113.299611 L178.423423,113.214851 L178.423423,113.928668 L180.043177,113.632837 L180.043177,114.093203 L178.423423,114.389865 L178.423423,114.82447 L177.961943,114.909231 L177.961943,114.474625 L176.341357,114.771287 L176.341357,115.199245 L175.879877,115.284006 L175.879877,114.855217 L174.25347,115.15271 L174.25347,114.692344 Z M174.165332,119.005992 C174.716614,118.556428 175.178925,117.988865 175.552267,117.304132 C175.496557,117.162865 175.432532,117.024921 175.361854,116.891132 C175.062516,117.203583 174.745716,117.497752 174.412286,117.772808 C174.341609,117.677245 174.250976,117.561738 174.141218,117.426287 C174.502919,117.15871 174.838843,116.86371 175.147329,116.541287 C174.972714,116.293654 174.764009,116.061808 174.52038,115.84409 L174.813899,115.491752 C175.069168,115.701992 175.290346,115.930513 175.474106,116.176485 C175.69861,115.9114 175.90399,115.632189 176.091908,115.335527 L176.459429,115.541611 C176.223284,115.883146 175.97051,116.208893 175.702768,116.517189 C176.079436,117.147076 176.252387,117.877513 176.223284,118.707668 C176.206654,119.506245 175.883203,119.964118 175.252929,120.079625 C175.087461,120.109541 174.887902,120.141949 174.655083,120.175189 C174.635127,120.027273 174.607688,119.856921 174.572765,119.664963 C174.813067,119.655823 175.030088,119.633386 175.222995,119.597654 C175.578043,119.532837 175.763467,119.261104 175.778434,118.781625 C175.790906,118.445076 175.76513,118.122654 175.700273,117.81602 C175.352708,118.388569 174.934466,118.89547 174.44222,119.338386 C174.367385,119.244485 174.275089,119.133132 174.165332,119.005992 Z" id="Fill-2" fill="#000000"></path>
                        <path d="M185.379969,112.936304 L183.83588,113.218839 C183.928176,114.46698 184.168479,115.442558 184.556787,116.14391 C184.900195,115.447544 185.174589,114.378065 185.379969,112.936304 Z M183.190639,113.336008 L183.190639,113.122445 L182.824781,113.188924 L182.824781,116.880163 C183.044296,116.800389 183.269631,116.719783 183.498293,116.636685 C183.487483,116.816177 183.480831,116.966586 183.480831,117.08791 C183.257159,117.165192 183.039307,117.242473 182.824781,117.318093 L182.824781,118.363473 C183.376063,117.907262 183.86332,117.330558 184.28572,116.63253 C183.83006,115.919544 183.537373,114.807685 183.406828,113.296952 L183.190639,113.336008 Z M182.380762,117.035558 L182.380762,116.087403 L181.226646,116.298473 L181.226646,117.431938 C181.596661,117.305628 181.980813,117.173501 182.380762,117.035558 Z M181.226646,115.88298 L182.380762,115.67191 L182.380762,114.678882 L181.226646,114.889952 L181.226646,115.88298 Z M181.226646,114.474459 L182.380762,114.263389 L182.380762,113.270361 L181.226646,113.481431 L181.226646,114.474459 Z M180.251301,117.749375 C180.425083,117.69453 180.602192,117.637192 180.78429,117.577361 L180.78429,113.562037 L180.339439,113.644304 L180.339439,113.189755 L183.238866,112.658755 L183.238866,112.885614 L185.822324,112.413614 L185.822324,112.822459 C185.594494,114.461163 185.257739,115.699332 184.811225,116.536135 C185.184567,117.04553 185.63108,117.412825 186.155754,117.637192 C186.043502,117.783445 185.922935,117.9646 185.794054,118.18398 C185.370822,117.923051 184.955906,117.527501 184.545978,116.996501 C184.14686,117.643839 183.673739,118.227192 183.126614,118.749882 C183.013531,118.607783 182.91292,118.489783 182.824781,118.395882 L182.824781,118.798079 L182.380762,118.879515 L182.380762,117.473487 C181.660687,117.7286 180.973871,117.977065 180.316157,118.218051 L180.251301,117.749375 Z" id="Fill-4" fill="#000000"></path>
                        <path d="M191.311695,115.343587 L188.857119,115.793151 L188.857119,116.8967 L191.311695,116.447137 L191.311695,115.343587 Z M188.40229,115.434165 L191.767355,114.819235 L191.767355,117.195024 L191.311695,117.278123 L191.311695,116.88839 L188.857119,117.337954 L188.857119,117.727686 L188.40229,117.810785 L188.40229,115.434165 Z M188.336602,114.394601 L191.826391,113.755573 L191.826391,114.197658 L188.336602,114.835855 L188.336602,114.394601 Z M188.336602,113.349221 L191.826391,112.711024 L191.826391,113.152277 L188.336602,113.790475 L188.336602,113.349221 Z M188.010656,112.350376 L189.943053,111.997207 C189.824149,111.796108 189.701087,111.597503 189.572205,111.403052 L189.968829,111.103066 C190.111846,111.310813 190.251538,111.532686 190.389566,111.766193 L190.131802,111.963137 L192.174788,111.589193 L192.174788,112.043742 L188.010656,112.804925 L188.010656,112.350376 Z M186.301931,114.91563 C186.881484,113.866094 187.316357,112.744263 187.609043,111.548475 L188.071355,111.606644 C187.899235,112.219911 187.712149,112.790799 187.508432,113.318475 L187.508432,117.973658 L187.070234,118.054263 L187.070234,114.350559 C186.889799,114.731982 186.697723,115.085982 186.496501,115.412559 C186.434139,115.242207 186.369283,115.076841 186.301931,114.91563 Z" id="Fill-6" fill="#000000"></path>
                        <path d="M197.126513,114.371001 L197.469921,114.01617 C197.749304,114.298706 198.03617,114.611156 198.327194,114.956846 L197.948863,115.343255 C197.681121,114.994241 197.405896,114.670156 197.126513,114.371001 Z M194.80165,114.581241 L195.121776,114.224748 C195.362079,114.423354 195.626494,114.66517 195.914192,114.950199 L195.553323,115.353227 C195.261468,115.029973 195.011187,114.773199 194.80165,114.581241 Z M193.766438,114.84217 L194.216277,114.760734 L194.216277,115.714706 C194.216277,115.983114 194.346822,116.092804 194.60708,116.046269 L195.920013,115.806114 C196.23515,115.747945 196.41891,115.595044 196.469631,115.348241 C196.510375,115.185368 196.549455,114.941889 196.588535,114.618635 C196.733216,114.656861 196.887874,114.691762 197.049184,114.722508 C197.00262,115.029973 196.954394,115.278438 196.90783,115.468734 C196.817197,115.896692 196.522847,116.155959 196.026444,116.247368 L194.535572,116.519931 C194.02337,116.613832 193.766438,116.391959 193.766438,115.855142 L193.766438,114.84217 Z M193.601802,113.982931 L196.961877,113.368832 L196.961877,112.823706 L193.601802,113.437804 L193.601802,113.982931 Z M193.601802,113.022311 L196.961877,112.408213 L196.961877,111.863086 L193.601802,112.477185 L193.601802,113.022311 Z M196.961877,110.908283 L193.601802,111.522382 L193.601802,112.061692 L196.961877,111.447593 L196.961877,110.908283 Z M193.146142,111.165058 L194.592113,110.899973 C194.676926,110.65317 194.746772,110.418001 194.80165,110.192804 L195.263131,110.245156 C195.198274,110.441269 195.130923,110.630734 195.059414,110.815213 L197.417537,110.383931 L197.417537,113.928086 L196.961877,114.012015 L196.961877,113.810917 L193.601802,114.424185 L193.601802,114.626114 L193.146142,114.709213 L193.146142,111.165058 Z M192.885052,114.939396 L193.31743,115.021663 C193.143647,115.573438 192.963213,116.080339 192.773631,116.54403 C192.646413,116.505804 192.501732,116.470072 192.335433,116.43517 C192.529172,116.023001 192.712101,115.525241 192.885052,114.939396 Z" id="Fill-8" fill="#000000"></path>
                        <polygon id="Fill-1" fill="#B2C9E5" points="368.152344 196.164062 363.026042 183.557292 357.926725 184.715199 324.135965 171 307 174.21944 344.844554 189.762547 334.971354 191.72526"></polygon>
                        <polygon id="Fill-12" fill="#727256" points="217.890384 95.8263873 129.838277 68.4213028 129.82331 66.5590634 217.874585 93.9641479"></polygon>
                        <polygon id="Fill-14" fill="#8E8E6A" points="88.328829 118.805142 0.27672189 91.4000577 129.838775 68.4208042 217.890051 95.8267197"></polygon>
                        <polygon id="Fill-16" fill="#9D9F9B" points="88.3141946 116.943485 0.262087559 89.537569 129.824141 66.5591465 217.874585 93.964231"></polygon>
                        <polygon id="Fill-18" fill="#E6B3B3" points="217.874918 93.9643972 217.890716 95.8266366 88.3286627 118.805059 88.3145272 116.943651"></polygon>
                        <polygon id="Fill-20" fill="#7F807D" points="88.328829 118.805142 0.27672189 91.4000577 0.262586457 89.5378183 88.313862 116.943734"></polygon>
                        <polygon id="Fill-22" fill="#E6B3B3" points="88.0713978 119.164211 0.0192907087 91.7582958 0.000166299213 89.2711549 88.0522734 116.676239"></polygon>
                        <g id="Group-26" transform="translate(0.000000, 65.647887)" fill="#F9F2E3">
                            <polygon id="Fill-24" points="88.0519408 51.0286014 -0.000166299213 23.6235169 130.081572 0.552023944 218.132016 27.9579394"></polygon>
                        </g>
                        <path d="M217.890384,95.8263873 L217.874585,93.9641479 L88.3141946,116.943401 L88.3291616,118.80481 L217.890384,95.8263873 Z M88.0522734,116.676655 L218.132349,93.605993 L218.152305,96.0931338 L88.0713978,119.163796 L88.0522734,116.676655 Z" id="Fill-27" fill="#E6B3B3"></path>
                        <polygon id="Fill-29" fill="#8E8E6A" points="232.120025 182.370246 144.067918 154.965162 273.629972 131.985908 361.681247 159.391824"></polygon>
                        <polygon id="Fill-31" fill="#9D9F9B" points="232.105391 180.508672 144.053284 153.102756 273.615337 130.124334 361.666613 157.529418"></polygon>
                        <polygon id="Fill-33" fill="#E6B3B3" points="361.666946 157.529501 361.681912 159.391741 232.119859 182.370163 232.105723 180.508755"></polygon>
                        <polygon id="Fill-35" fill="#7F807D" points="232.120025 182.370246 144.067918 154.965162 144.053783 153.102923 232.105058 180.508838"></polygon>
                        <polygon id="Fill-37" fill="#E6B3B3" points="231.862594 182.7289 143.810487 155.323815 143.791363 152.835844 231.84347 180.241759"></polygon>
                        <polygon id="Fill-39" fill="#F9F2E3" points="231.843054 180.241676 143.790947 152.836592 273.872685 129.765099 361.923961 157.170183"></polygon>
                        <path d="M361.681497,159.391575 L361.66653,157.529335 L232.105308,180.508589 L232.120275,182.369997 L361.681497,159.391575 Z M231.843386,180.241842 L361.924294,157.170349 L361.943418,159.658321 L231.862511,182.728983 L231.843386,180.241842 Z" id="Fill-41" fill="#E6B3B3"></path>
                        <polygon id="Fill-49" fill="#E6B3B3" points="526.981916 210.800685 526.996883 212.662093 397.43483 235.641346 397.420694 233.779107"></polygon>
                        <polygon id="Fill-53" fill="#E6B3B3" points="397.177648 235.999668 309.125541 208.594583 309.106416 206.106611 397.158523 233.512527"></polygon>
                        <polygon id="Fill-55" fill="#F9F2E3" points="397.158191 233.512444 309.106084 206.107359 439.187822 183.035866 527.239098 210.440951"></polygon>
                        <path d="M526.996551,212.662259 L526.981584,210.800851 L397.420362,233.779273 L397.435329,235.640682 L526.996551,212.662259 Z M397.15844,233.512527 L527.239347,210.441034 L527.258472,212.929006 L397.177565,235.999668 L397.15844,233.512527 Z" id="Fill-57" fill="#E6B3B3"></path>
                        <polygon id="Fill-60" fill="#E6F0F4" points="128.183766 8.45843944 128.496408 90.2041859 97.3485657 95.1435662 97.0359231 13.3978197"></polygon>
                        <polygon id="Fill-61" fill="#DCE0E2" points="97.3485657 95.1438986 74.6828145 86.9188 74.370172 5.17305352 97.0359231 13.3981521"></polygon>
                        <polygon id="Fill-62" fill="#A1ABC0" points="97.0360063 13.398069 74.3702551 5.17297042 105.518929 0.233590141 128.183849 8.45868873"></polygon>
                        <polygon id="Fill-63" fill="#89A7B1" points="117.48474 31.7001183 105.793073 34.2620479 105.793073 22.4454282 117.48474 19.8834986"></polygon>
                        <polygon id="Fill-64" fill="#89A7B1" points="117.48474 52.8902592 105.793073 55.4521887 105.793073 43.635569 117.48474 41.0736394"></polygon>
                        <polygon id="Fill-65" fill="#89A7B1" points="117.48474 74.4203563 105.793073 76.9822859 105.793073 65.1656662 117.48474 62.6037366"></polygon>
                        <polygon id="Fill-66" fill="#89A7B1" points="89.6134072 34.0993408 79.1373883 29.544707 79.1373883 17.6732423 89.6134072 22.2278761"></polygon>
                        <polygon id="Fill-67" fill="#89A7B1" points="89.6134072 56.4758803 79.1373883 51.9212465 79.1373883 40.0497817 89.6134072 44.6044155"></polygon>
                        <polygon id="Fill-68" fill="#89A7B1" points="89.6134072 78.0056451 79.1373883 73.4518423 79.1373883 61.5803775 89.6134072 66.1341803"></polygon>
                        <g id="Group-72" transform="translate(230.324409, 94.732394)">
                            <polygon id="Fill-69" fill="#E6F0F4" points="44.5924687 1.02784648 44.4968466 52.7500718 2.09553638 58.7049169 2.19115843 6.98352254"></polygon>
                            <polygon id="Fill-70" fill="#BDE0E0" points="2.09520378 58.7050831 0.474617953 57.824238 0.57024 6.10201268 2.19082583 6.98285775"></polygon>
                            <polygon id="Fill-71" fill="#B1CFCF" points="2.19099213 6.98310704 0.570406299 6.10226197 42.9717165 0.146585915 44.5923024 1.02743099"></polygon>
                        </g>
                        <polygon id="Fill-73" fill="#89A7B1" points="267.97372 103.873239 238.63937 108.136197 238.63937 110.356592 267.97372 106.093634"></polygon>
                        <polygon id="Fill-73-Copy" fill="#89A7B1" points="258.595276 122.985915 238.63937 126.156087 238.63937 127.807296 258.595276 124.637124"></polygon>
                        <polygon id="Fill-74" fill="#89A7B1" points="267.97372 110.521127 238.63937 114.784085 238.63937 117.004479 267.97372 112.741521"></polygon>
                        <polygon id="Fill-75" fill="#89A7B1" points="267.97372 116.338028 238.63937 120.600986 238.63937 122.82138 267.97372 118.558423"></polygon>
                    </g>
                    <text id="" font-family="uex-icon" font-size="62.6667" font-weight="normal" fill="#F08686">
                        <tspan x="387" y="207"></tspan>
                    </text>
                    <g id="Group-78" transform="translate(99.000000, 87.000000)" fill="#000000">
                        <path d="M6.05424571,8.23522192 C7.62210826,9.78254493 9.43210044,10.929706 11.4842765,11.6767396 L11.1271997,12.3623162 C9.05039747,11.5527907 7.27734391,10.3886042 5.80798581,8.86972177 C4.43713217,10.661161 2.64766145,12.2845264 0.439519955,13.7398667 L0.0947560923,13.1439432 C2.27006277,11.7666395 4.09236782,10.1513867 5.56172591,8.29813637 L6.05424571,8.23522192 Z M5.8326118,11.4756585 L6.48520054,11.3922968 L6.48520054,14.2598261 L9.94515216,13.8178521 L9.94515216,14.4701227 L6.48520054,14.9120967 L6.48520054,18.1857567 L10.8316878,17.6305367 L10.8316878,18.2828073 L0.636527876,19.5851364 L0.636527876,18.9328658 L2.5696681,18.6859265 L2.5696681,13.6646736 L3.22225684,13.581312 L3.22225684,18.6025649 L5.8326118,18.2691183 L5.8326118,11.4756585 Z M16.4587266,7.00461015 L17.1113153,6.9212485 L17.1113153,16.7791495 L19.1060205,16.524346 L19.1060205,6.66644499 L19.7586092,6.58308335 L19.7586092,16.4409843 L23.5386987,15.958116 L23.5386987,16.6103866 L12.7032631,17.9945044 L12.7032631,17.3422338 L16.4587266,16.8625111 L16.4587266,7.00461015 Z M23.1569959,8.51191622 C22.6644736,10.7408725 22.0324129,12.7127675 21.2607946,14.4276604 L20.6574579,14.2832047 C21.3880326,12.6966253 22.0241976,10.7447174 22.5659721,8.42742265 L23.1569959,8.51191622 Z M13.6144247,9.53397177 C14.2547036,11.1095325 14.8375129,12.967263 15.36287,15.1072189 L14.7472202,15.3335459 C14.3121589,13.4528108 13.7416625,11.6099166 13.0357139,9.80480812 L13.6144247,9.53397177 Z M25.287144,6.71374416 L27.5404221,6.42591056 L27.5404221,5.42904417 L28.2053239,5.34410966 L28.2053239,6.34097606 L32.6503151,5.77317317 L32.6503151,4.77630677 L33.3152168,4.69137227 L33.3152168,5.68823866 L35.5684949,5.40040506 L35.5684949,5.97883371 L33.3152168,6.26666731 L33.3152168,10.5248867 L35.7655029,10.2118873 L35.7655029,10.802623 L33.0320179,11.1517982 C33.6558795,11.9171905 34.6244921,12.4498264 35.9378848,12.7497217 L35.6669989,13.3627533 C34.1073451,12.9056072 33.0156037,12.1958922 32.3917422,11.2335869 L28.4515838,11.7369025 C27.8277222,12.8585918 26.7770238,13.8583911 25.299457,14.7363304 L24.9670062,14.224983 C26.2803989,13.5156999 27.22849,12.7136107 27.811308,11.8186913 L25.0901361,12.1662936 L25.0901361,11.575558 L27.5404221,11.2625586 L27.5404221,7.00433921 L25.287144,7.29217281 L25.287144,6.71374416 Z M28.2053239,11.1776241 L32.6503151,10.6098212 L32.6503151,9.53911287 L28.2053239,10.1069158 L28.2053239,11.1776241 Z M28.2053239,9.5531011 L32.6503151,8.98529821 L32.6503151,7.96381783 L28.2053239,8.53162072 L28.2053239,9.5531011 Z M28.2053239,7.99011305 L32.6503151,7.42231016 L32.6503151,6.35160181 L28.2053239,6.91940471 L28.2053239,7.99011305 Z M30.1015251,12.0553398 L30.7664269,11.9704053 L30.7664269,13.0411137 L33.3275298,12.7139585 L33.3275298,13.3170012 L30.7664269,13.6441563 L30.7664269,15.2071443 L35.0513491,14.6597886 L35.0513491,15.2874453 L25.7304119,16.4781012 L25.7304119,15.8504446 L30.1015251,15.2920788 L30.1015251,13.7290908 L27.5157962,14.0593916 L27.5157962,13.456349 L30.1015251,13.1260482 L30.1015251,12.0553398 Z M37.5016352,6.50723503 L42.4145202,5.87966341 L42.4145202,3.57825581 L43.0794219,3.49332131 L43.0794219,5.79472891 L47.979994,5.16873015 L47.979994,5.82100076 L43.7812627,6.35734642 C44.6349679,8.29126514 46.1576598,9.91407097 48.3493838,11.2258126 L47.906116,11.8608643 C45.6487223,10.3523937 44.0931961,8.54097449 43.2394909,6.42655232 L43.0794219,6.44699951 L43.0794219,11.4436385 L45.8129068,11.0944633 L45.8129068,11.7467339 L43.0794219,12.0959091 L43.0794219,14.6926845 L42.4145202,14.777619 L42.4145202,12.1808436 L39.7795393,12.5174359 L39.7795393,11.8651653 L42.4145202,11.528573 L42.4145202,6.53193402 L42.2421383,6.55395407 C41.3391808,9.17993683 39.746716,11.4427077 37.4646962,13.3423345 L37.0829933,12.7880505 C39.2583,11.0661493 40.8015133,9.01068206 41.7126795,6.6215871 L37.5016352,7.15950563 L37.5016352,6.50723503 Z M50.9104868,6.46814017 C50.4590081,7.21500706 49.9993275,7.88086552 49.5314314,8.46573552 L49.3097975,7.79254844 C50.5739379,6.07217371 51.4809862,4.21283425 52.0309694,2.2144743 L52.6589321,2.4296262 C52.3798362,3.3842046 52.0145543,4.32516486 51.5630756,5.25253522 L51.5630756,13.6335971 L50.9104868,13.7169588 L50.9104868,6.46814017 Z M52.7328101,3.9585631 L60.6870049,2.94249477 L60.6870049,3.58245838 L52.7328101,4.59852671 L52.7328101,3.9585631 Z M53.8779186,5.6337219 L59.6157743,4.90076858 L59.6157743,5.50381121 L53.8779186,6.23676453 L53.8779186,5.6337219 Z M53.8779186,7.36900784 L59.6157743,6.63605453 L59.6157743,7.25140415 L53.8779186,7.98435747 L53.8779186,7.36900784 Z M59.8250953,8.41844378 L59.8250953,12.5412863 L59.1725065,12.6246479 L59.1725065,11.9477633 L54.3334994,12.5658978 L54.3334994,13.2427824 L53.6685977,13.3277169 L53.6685977,9.20487438 L59.8250953,8.41844378 Z M54.3334994,11.9259342 L59.1725065,11.3077997 L59.1725065,9.12946205 L54.3334994,9.7475965 L54.3334994,11.9259342 Z M56.5990905,1.70478475 C56.8699778,2.1870779 57.0792966,2.64030744 57.2270533,3.06448696 L56.6360295,3.37381715 C56.4390206,2.84926798 56.2132846,2.37762412 55.9588148,1.95887143 L56.5990905,1.70478475 Z M63.6298107,1.8158544 L66.3263567,1.47139779 C66.5069482,1.12834564 66.646494,0.765927716 66.7449985,0.384133143 L67.4345262,0.394508856 C67.3278131,0.760942604 67.1964758,1.08949365 67.0405104,1.38017184 L71.2146157,0.846971899 L71.2146157,6.70510034 L63.6298107,7.67398283 L63.6298107,1.8158544 Z M70.562027,6.19772634 L70.562027,4.97933408 L64.2823995,5.78149329 L64.2823995,6.99988555 L70.562027,6.19772634 Z M64.2823995,5.22767863 L70.562027,4.42551942 L70.562027,3.26866212 L64.2823995,4.07082133 L64.2823995,5.22767863 Z M64.2823995,3.50469967 L70.562027,2.70254046 L70.562027,1.50876219 L64.2823995,2.3109214 L64.2823995,3.50469967 Z M63.6913757,8.71221289 C63.3794449,9.88430788 62.956703,10.9146539 62.4231372,11.8032818 L61.8690524,11.5048508 C62.4108269,10.6479931 62.8048388,9.70336286 63.0511,8.67093175 L63.6913757,8.71221289 Z M65.6491419,11.612718 C65.0252804,11.6924101 64.7133543,11.4368906 64.7133543,10.846152 L64.7133543,8.38475353 L65.390569,8.29824616 L65.390569,10.6119608 C65.390569,10.9073301 65.5383235,11.0361383 65.8338369,10.9983895 L68.7150777,10.63034 C69.0270085,10.5904939 69.2445359,10.4929681 69.3676664,10.3377594 C69.5400492,10.1352358 69.6508651,9.59598712 69.7001173,8.71999715 L70.3403931,8.84742724 C70.2665147,9.85783819 70.1023431,10.5064598 69.8478733,10.7933115 C69.6344469,11.0092828 69.2978951,11.1466265 68.8382077,11.205347 L65.6491419,11.612718 Z M67.0897624,7.66275357 C67.7957109,8.23715667 68.3374773,8.74637433 68.7150777,9.19042184 L68.2102449,9.61181193 C67.8326445,9.14315031 67.2949824,8.61699921 66.5972426,8.03334283 L67.0897624,7.66275357 Z M71.0791728,7.43620737 C71.9246693,8.36199624 72.5649387,9.17040516 73,9.8614584 L72.4705412,10.2983012 C71.9698102,9.49256607 71.3336452,8.67132599 70.562027,7.83455634 L71.0791728,7.43620737 Z" id="企业基本信息"></path>
                        <path d="M157.900876,77.0136619 L157.900876,82.0959236 L157.221232,82.1884489 L157.221232,81.6223554 L152.853893,82.2169168 L152.853893,82.7830103 L152.17425,82.8755357 L152.17425,77.793274 L157.900876,77.0136619 Z M152.853893,81.5627643 L157.221232,80.968203 L157.221232,77.7603398 L152.853893,78.3549011 L152.853893,81.5627643 Z M147.542605,83.3802805 L147.391573,82.7466892 C147.895015,82.711698 148.25581,82.679353 148.473968,82.6496534 C148.826378,82.601677 149.00258,82.3931865 149.00258,82.0241756 L149.00258,78.6150347 C148.356496,78.9545897 147.777546,79.243069 147.265713,79.4804812 L147.076923,78.8268705 C147.689444,78.5757508 148.331324,78.2787044 149.00258,77.9357225 L149.00258,74.9039773 L147.303471,75.1352908 L147.303471,74.4685584 L149.00258,74.2372449 L149.00258,71.8722321 L149.682223,71.7797067 L149.682223,74.1447196 L151.255472,73.9305404 L151.255472,74.5972728 L149.682223,74.8114519 L149.682223,77.5664403 C150.143712,77.2939488 150.634561,76.9797242 151.154784,76.6237571 L151.154784,77.3030693 C150.567435,77.6933346 150.076586,78.0033659 149.682223,78.2331726 L149.682223,82.1077681 C149.682223,82.7619239 149.359186,83.1329746 148.713102,83.2209312 L147.542605,83.3802805 Z M151.8596,72.7035288 L151.8596,72.074536 L158.064493,71.2298134 C158.039321,73.5563319 157.905072,74.9625719 157.661742,75.4485755 C157.410021,75.9357214 156.977906,76.2209838 156.365385,76.3043713 C156.214352,76.3249326 155.878729,76.3622372 155.358505,76.4162862 L155.182301,75.8238614 L156.201767,75.7228129 C156.7136,75.6363597 157.032442,75.3916774 157.158302,74.9887589 C157.284163,74.5942269 157.359678,73.5817613 157.38485,71.9513316 L154.817308,72.300872 C154.599149,73.4543777 154.305479,74.3791317 153.936288,75.0751618 C153.499972,75.8558098 152.858093,76.5763737 152.010632,77.2368753 L151.582708,76.7667781 C152.363043,76.1573479 152.946188,75.5286448 153.332161,74.8806498 C153.692961,74.2360816 153.961459,73.4070058 154.137664,72.3933973 L151.8596,72.7035288 Z M160.153768,81.6634205 L160.002736,81.0298292 C160.455834,81.0016917 160.778871,80.974487 160.971857,80.9482142 C161.35783,80.8956687 161.550813,80.6597341 161.550813,80.2404035 L161.550813,76.9319015 C160.963464,77.2550739 160.401295,77.5412686 159.86429,77.7904943 L159.688086,77.1351702 C160.342561,76.8615658 160.963464,76.5631818 161.550813,76.2400095 L161.550813,73.1956844 L159.939806,73.4150038 L159.939806,72.7482715 L161.550813,72.5289521 L161.550813,70.1639392 L162.230457,70.0714138 L162.230457,72.4364267 L163.753361,72.2291012 L163.753361,72.8958336 L162.230457,73.103159 L162.230457,75.8581474 C162.733899,75.5380113 163.224747,75.2070138 163.703018,74.8651448 L163.703018,75.544457 C163.182794,75.9171973 162.691945,76.2440016 162.230457,76.5248797 L162.230457,80.3239961 C162.230457,81.0284715 161.890638,81.4269662 161.210991,81.5194921 L160.153768,81.6634205 Z M164.219043,75.235189 L170.134459,74.4298754 L170.134459,75.071448 C169.714924,76.3697814 169.035287,77.5148099 168.095528,78.5065679 C168.959771,79.0179075 170.03796,79.424633 171.330128,79.7267565 L170.965134,80.3551195 C169.647794,80.0144897 168.531847,79.5583924 167.617261,78.9868136 C166.635549,79.8920304 165.410524,80.6710164 163.942151,81.323795 L163.577158,80.8073911 C164.970014,80.1816664 166.136304,79.4484155 167.076063,78.6076165 C166.069179,77.8389377 165.389542,76.9041175 165.037133,75.803128 L164.219043,75.9145012 L164.219043,75.235189 Z M165.666432,75.7174564 C166.010451,76.6854024 166.639744,77.4970856 167.554331,78.1525305 C168.426964,77.2370037 169.060452,76.2534077 169.454816,75.201713 L165.666432,75.7174564 Z M165.276266,70.1976968 L169.278612,69.652825 L169.278612,72.4329731 C169.278612,72.7516644 169.454814,72.8870198 169.807223,72.8390434 L170.939962,72.6848344 L170.939962,73.3264071 L169.668777,73.4994638 C168.963958,73.5954166 168.611554,73.3079327 168.611554,72.6370038 L168.611554,70.3977895 L165.95591,70.7593239 L165.95591,71.6021742 C165.95591,72.7595267 165.381155,73.73932 164.231629,74.5415835 L163.765947,74.0766266 C164.772832,73.4447411 165.276266,72.6759328 165.276266,71.7701787 L165.276266,70.1976968 Z M174.300422,68.4408112 L174.96748,68.3499993 L174.96748,70.8030711 L176.515557,70.5923188 L176.515557,71.2590512 L174.96748,71.4698035 L174.96748,72.5265113 C175.580001,73.0805064 176.209294,73.7328464 176.855378,74.4835509 L176.465213,75.1153407 C175.928208,74.3749462 175.428968,73.7552198 174.96748,73.256143 L174.96748,79.785088 L174.300422,79.8759 L174.300422,73.0827779 C173.880887,74.5069105 173.310328,75.8048191 172.588727,76.9765428 L172.286664,76.3006135 C173.226422,74.8392051 173.889278,73.2603638 174.27525,71.5640423 L172.676829,71.7816483 L172.676829,71.114916 L174.300422,70.8938831 L174.300422,68.4408112 Z M178.642589,73.6615701 C178.223054,75.48826 177.627323,77.091509 176.855378,78.4713652 L176.251251,78.1762143 C177.056758,76.7666291 177.644099,75.2483872 178.01329,73.6214432 L178.642589,73.6615701 Z M182.330285,72.9708363 C182.884071,74.3379422 183.362334,75.7991729 183.765088,77.3545724 L183.135788,77.7295807 C182.724644,76.099844 182.254771,74.6123116 181.726157,73.2669386 L182.330285,72.9708363 Z M178.353111,79.1983759 L178.214665,78.575651 C178.768452,78.5338061 179.167004,78.4963209 179.410335,78.4631943 C179.771135,78.4140757 179.951532,78.1966275 179.951532,77.8108433 L179.951532,72.2002277 L176.805034,72.628586 L176.805034,71.9618537 L183.802846,71.0091848 L183.802846,71.6759172 L180.631176,72.1077023 L180.631176,77.8818561 C180.631176,78.552785 180.299748,78.9333645 179.636882,79.0236057 L178.353111,79.1983759 Z M177.459506,68.7906905 L183.148374,68.0162187 L183.148374,68.6829511 L177.459506,69.4574229 L177.459506,68.7906905 Z M186.420732,70.8540684 C185.959243,71.6213701 185.489371,72.3059376 185.011101,72.9077916 L184.784553,72.2215816 C186.076721,70.4522119 187.00388,68.5438619 187.566057,66.4964742 L188.207942,66.7110057 C187.922659,67.6891443 187.549278,68.6541026 187.087789,69.6059098 L187.087789,78.1727914 L186.420732,78.2636034 L186.420732,70.8540684 Z M188.283458,68.273207 L196.414009,67.1663292 L196.414009,67.8204817 L188.283458,68.9273595 L188.283458,68.273207 Z M189.453956,69.9756764 L195.319028,69.1772165 L195.319028,69.7936294 L189.453956,70.5920893 L189.453956,69.9756764 Z M189.453956,71.749436 L195.319028,70.9509761 L195.319028,71.5799689 L189.453956,72.3784288 L189.453956,71.749436 Z M195.532989,72.7710865 L195.532989,76.9853382 L194.865932,77.0761501 L194.865932,76.3842581 L189.919637,77.0576373 L189.919637,77.7495294 L189.239994,77.8420548 L189.239994,73.6278031 L195.532989,72.7710865 Z M189.919637,76.4034848 L194.865932,75.7301056 L194.865932,73.5034711 L189.919637,74.1768504 L189.919637,76.4034848 Z M192.23546,65.9362697 C192.512353,66.4269305 192.726313,66.8884119 192.877345,67.3207277 L192.273218,67.6419897 C192.071841,67.1075018 191.8411,66.6273387 191.580988,66.2014862 L192.23546,65.9362697 Z M199.422061,65.9894475 L202.178393,65.6142056 C202.362988,65.2619972 202.505628,64.8903461 202.606316,64.499241 L203.311132,64.5039276 C203.202053,64.8794017 203.067804,65.2163647 202.90838,65.5148265 L207.175031,64.9339726 L207.175031,70.9219839 L199.422061,71.9774587 L199.422061,65.9894475 Z M206.507974,70.4089628 L206.507974,69.1635571 L200.089118,70.037408 L200.089118,71.2828137 L206.507974,70.4089628 Z M200.089118,69.4713145 L206.507974,68.5974636 L206.507974,67.4149571 L200.089118,68.2888081 L200.089118,69.4713145 Z M200.089118,67.7101347 L206.507974,66.8362838 L206.507974,65.6160378 L200.089118,66.4898887 L200.089118,67.7101347 Z M199.484991,73.0381793 C199.166144,74.238939 198.734029,75.2957582 198.188634,76.2086685 L197.622264,75.9083774 C198.17605,75.0278711 198.578798,74.0589148 198.830519,73.0014792 L199.484991,73.0381793 Z M201.486163,75.9861864 C200.84847,76.0730008 200.529628,75.8144938 200.529628,75.2106578 L200.529628,72.6946866 L201.221857,72.6004478 L201.221857,74.9654607 C201.221857,75.2673787 201.372888,75.3977745 201.674953,75.3566519 L204.620075,74.9557085 C204.938922,74.9123013 205.161272,74.8107458 205.287133,74.651039 C205.463337,74.4425453 205.57661,73.8903895 205.626954,72.9945548 L206.281426,73.1193138 C206.20591,74.1527612 206.038098,74.8171729 205.777986,75.112569 C205.559828,75.3351608 205.215814,75.4784387 204.745935,75.5424072 L201.486163,75.9861864 Z M202.958724,71.9362789 C203.680325,72.5173572 204.234103,73.0332142 204.620075,73.4838654 L204.104049,73.918932 C203.718077,73.4431209 203.168494,72.9099198 202.455285,72.3193127 L202.958724,71.9362789 Z M207.036585,71.6704633 C207.900828,72.6095201 208.555293,73.4303562 209,74.1329963 L208.458802,74.5840696 C207.94697,73.7647687 207.2967,72.9307817 206.507974,72.0820836 L207.036585,71.6704633 Z" id="招投标信息"></path>
                        <path d="M314.265835,133.948214 L318.732897,133.296672 L318.732897,136.210728 L314.265835,136.86227 L314.265835,133.948214 Z M318.06972,135.694629 L318.06972,134.006227 L314.929012,134.464313 L314.929012,136.152715 L318.06972,135.694629 Z M317.61926,130.970272 C318.695364,131.580398 319.575421,132.202431 320.259456,132.83639 L319.758945,133.397152 C319.124961,132.764231 318.261588,132.127258 317.1688,131.486214 L317.61926,130.970272 Z M316.40552,126.594871 C316.597384,126.925413 316.772561,127.312579 316.931057,127.75638 L322.011245,127.015411 L322.011245,127.665759 L319.270947,128.065444 C319.004006,128.779742 318.732898,129.382079 318.457616,129.872473 L321.298017,129.458188 L321.298017,136.136754 C321.298017,136.945524 320.960175,137.399178 320.284482,137.497731 L319.020691,137.68206 L318.845512,137.082277 L320.071764,136.928436 C320.44715,136.873684 320.634839,136.596178 320.634839,136.095908 L320.634839,130.167743 L312.35138,131.375923 L312.35138,138.61729 L311.688203,138.714017 L311.688203,130.859823 L314.390963,130.465613 C314.190758,129.877815 313.940504,129.351521 313.640196,128.886714 L311,129.271799 L311,128.621452 L316.205316,127.862233 C316.030136,127.470892 315.854959,127.121246 315.679779,126.813284 L316.40552,126.594871 Z M317.731875,129.978326 C318.023841,129.410458 318.286607,128.809338 318.52018,128.174947 L314.390963,128.777212 C314.666245,129.287357 314.895644,129.816693 315.079166,130.365236 L317.731875,129.978326 Z M315.792394,131.699476 C315.058307,132.665342 314.153226,133.551915 313.077121,134.35922 L312.651687,133.870978 C313.694424,133.110228 314.578651,132.264217 315.304396,131.332919 L315.792394,131.699476 Z M328.943324,132.620369 L328.943324,133.67093 L333.122592,133.061365 L333.122592,132.010804 L328.943324,132.620369 Z M333.122592,131.49803 L333.122592,130.397442 L328.943324,131.007008 L328.943324,132.107595 L333.122592,131.49803 Z M328.943324,134.183704 L328.943324,136.259813 L328.29266,136.354715 L328.29266,130.551616 L333.760744,129.754071 L333.760744,134.281489 C333.760744,135.098596 333.435415,135.554594 332.784747,135.649497 L331.846289,135.786375 L331.683623,135.234794 L332.584543,135.128404 C332.943244,135.076085 333.122592,134.778951 333.122592,134.236993 L333.122592,133.574139 L328.943324,134.183704 Z M330.707626,124.546364 L331.395829,124.445986 L331.395829,125.396494 L334.37387,124.962133 L334.37387,125.512427 L331.395829,125.946787 L331.395829,126.984842 L333.960949,126.610707 L333.960949,127.148495 L331.395829,127.522629 L331.395829,128.560683 L334.724228,128.075221 L334.724228,128.625515 L327.30415,129.707767 L327.30415,129.54518 L326.928767,129.687478 C326.670168,128.98313 326.336498,128.29391 325.927745,127.6198 L326.390718,127.402193 C326.70771,127.872904 327.012184,128.457991 327.30415,129.157473 L330.707626,128.661061 L330.707626,127.623006 L328.104968,128.002616 L328.104968,127.464829 L330.707626,127.085219 L330.707626,126.047165 L327.667021,126.490651 L327.667021,125.940357 L330.707626,125.496871 L330.707626,124.546364 Z M324.401186,127.967522 C324.351134,129.200483 324.117565,130.401829 323.70047,131.571595 L323.187446,131.508848 C323.596199,130.390326 323.825598,129.222939 323.875649,128.006654 L324.401186,127.967522 Z M325.014312,125.501826 L325.690002,125.403274 L325.690002,136.709311 L325.014312,136.807864 L325.014312,125.501826 Z M337.314373,127.734957 C336.855569,128.502253 336.38843,129.187377 335.912942,129.79035 L335.687712,129.11032 C336.972364,127.338761 337.894129,125.432555 338.453036,123.391647 L339.091188,123.59873 C338.807563,124.573934 338.436355,125.536886 337.97755,126.487615 L337.97755,135.004663 L337.314373,135.10139 L337.314373,127.734957 Z M339.166264,125.151114 L347.249519,123.972135 L347.249519,124.622482 L339.166264,125.801462 L339.166264,125.151114 Z M340.329953,126.832374 L346.160908,125.981902 L346.160908,126.594729 L340.329953,127.445201 L340.329953,126.832374 Z M340.329953,128.595815 L346.160908,127.745344 L346.160908,128.370678 L340.329953,129.221149 L340.329953,128.595815 Z M346.373625,129.5528 L346.373625,133.742537 L345.710448,133.839265 L345.710448,133.151397 L340.792926,133.86864 L340.792926,134.556508 L340.117236,134.65506 L340.117236,130.465323 L346.373625,129.5528 Z M340.792926,133.218293 L345.710448,132.50105 L345.710448,130.287368 L340.792926,131.004611 L340.792926,133.218293 Z M343.095277,122.789595 C343.370559,123.274727 343.583274,123.731457 343.733429,124.159799 L343.132815,124.485028 C342.93261,123.955595 342.703211,123.480454 342.444612,123.059591 L343.095277,122.789595 Z M350.240073,122.773041 L352.980372,122.373356 C353.163894,122.021414 353.305704,121.650547 353.405806,121.260744 L354.106522,121.258595 C353.998077,121.632938 353.864609,121.969238 353.706113,122.267504 L357.947945,121.648813 L357.947945,127.601992 L350.240073,128.72622 L350.240073,122.773041 Z M357.284768,127.098399 L357.284768,125.860238 L350.903251,126.791011 L350.903251,128.029172 L357.284768,127.098399 Z M350.903251,126.228211 L357.284768,125.297437 L357.284768,124.12181 L350.903251,125.052583 L350.903251,126.228211 Z M350.903251,124.477276 L357.284768,123.546502 L357.284768,122.333355 L350.903251,123.264128 L350.903251,124.477276 Z M350.302637,129.780163 C349.985645,130.977018 349.556044,132.031864 349.013821,132.944732 L348.450746,132.651659 C349.001311,131.770925 349.401716,130.803715 349.651973,129.749999 L350.302637,129.780163 Z M352.292169,132.69169 C351.658185,132.78416 351.341198,132.530237 351.341198,131.929913 L351.341198,129.428577 L352.029401,129.3282 L352.029401,131.679455 C352.029401,131.979617 352.179553,132.107795 352.479861,132.063994 L355.407851,131.636933 C355.724843,131.590699 355.9459,131.487586 356.071028,131.327592 C356.246208,131.118609 356.358822,130.568571 356.408873,129.677461 L357.059538,129.795172 C356.984461,130.823338 356.817625,131.485506 356.559027,131.781696 C356.342137,132.0051 356.000125,132.150868 355.532979,132.219003 L352.292169,132.69169 Z M353.756164,128.651116 C354.473567,129.221844 355.024124,129.729351 355.407851,130.173652 L354.894827,130.611173 C354.5111,130.141858 353.964714,129.617067 353.255653,129.036785 L353.756164,128.651116 Z M357.810304,128.347455 C358.669519,129.272701 359.320177,130.08244 359.762298,130.776697 L359.224248,131.230375 C358.715393,130.420784 358.068906,129.59793 357.284768,128.761787 L357.810304,128.347455 Z" id="商情信息"></path>
                        <path d="M228.309481,89.7554476 L228.898087,89.7636221 C228.79508,90.2531948 228.674908,90.7132287 228.537566,91.1437376 L230.788982,90.8374575 L230.788982,91.3375282 L230.325455,91.4005859 C230.202828,92.8586555 229.888908,94.0461191 229.383686,94.9630125 C229.780997,95.4482574 230.286211,95.8207631 230.899345,96.0805405 C230.742383,96.3176114 230.609948,96.5292806 230.502037,96.7155545 C229.903618,96.4096511 229.405761,96.0165341 229.00845,95.5361918 C228.557184,96.156487 228.020087,96.7149111 227.397143,97.2114807 C227.289231,97.0839832 227.149439,96.9485683 226.977761,96.805232 C227.664471,96.2607663 228.221188,95.6727089 228.647929,95.0410421 C228.250619,94.4087167 227.988201,93.6526449 227.860669,92.772804 C227.757663,92.968216 227.649753,93.1520358 227.536936,93.324269 C227.438835,93.1954369 227.31621,93.0552353 227.169058,92.90366 C227.738046,92.0075081 228.118183,90.9581144 228.309481,89.7554476 Z M223.571207,94.6432845 L224.689558,94.4911454 C224.797469,94.2901634 224.902926,94.0846155 225.005933,93.8744954 L225.535678,93.9715711 C225.457197,94.1195226 225.378717,94.2650206 225.300236,94.4080694 L227.10284,94.1628451 L227.10284,94.6408539 C226.916447,95.146673 226.63441,95.6066652 226.25672,96.020844 C226.526498,96.1116132 226.801178,96.2017138 227.080767,96.2911485 L226.757034,96.8426135 C226.45292,96.7123911 226.136548,96.5838389 225.807908,96.4569529 C225.253635,96.9294726 224.554673,97.3383253 223.711001,97.6835235 C223.63252,97.5373142 223.549135,97.3770666 223.460844,97.2027759 C224.176984,96.9435645 224.782751,96.6282829 225.278163,96.2569215 C224.856327,96.0985897 224.414877,95.9380268 223.953801,95.7752279 C224.110763,95.5283517 224.262818,95.2747926 224.40997,95.0145429 L223.571207,95.1286473 L223.571207,94.6432845 Z M223.65214,92.1025048 L225.344381,91.8722942 L225.344381,90.2250024 L225.888841,90.1509346 L225.888841,91.7982265 L227.301494,91.6060507 L227.301494,92.0914135 L225.888841,92.2835893 L225.888841,92.7321821 L226.109568,92.4521193 C226.56574,92.7234444 226.948329,92.9655536 227.257349,93.1784543 L226.904186,93.6383212 C226.634407,93.4200823 226.295962,93.1793215 225.888841,92.9160317 L225.888841,93.7543856 L225.344381,93.8284533 L225.344381,92.7988959 C224.89802,93.3253729 224.37809,93.8054711 223.784577,94.2392049 C223.69138,94.1097056 223.585923,93.9745224 223.468201,93.8336514 C224.08624,93.4161919 224.652767,92.9322059 225.167799,92.381679 L223.65214,92.5878676 L223.65214,92.1025048 Z M229.736849,91.4806591 L228.360984,91.6678303 C228.336459,91.7349016 228.309481,91.7998541 228.280051,91.8626899 C228.368342,92.8900468 228.613592,93.7465062 229.015808,94.4320937 C229.408213,93.6629201 229.648558,92.6791185 229.736849,91.4806591 Z M224.674842,95.5079966 C225.023102,95.6175055 225.381167,95.733032 225.749047,95.8545797 C226.087497,95.5192793 226.352367,95.1425157 226.543665,94.7242774 L225.013291,94.9324679 C224.900474,95.1292144 224.787659,95.3210554 224.674842,95.5079966 Z M226.970404,90.1876496 L227.426573,90.427106 C227.156794,90.8167993 226.887019,91.1795225 226.61724,91.5152863 C226.504424,91.4325802 226.371989,91.3476418 226.219932,91.2604685 C226.474995,90.9267065 226.72515,90.5691038 226.970404,90.1876496 Z M223.843437,90.9366139 L224.262819,90.5927564 C224.483547,90.8323761 224.711629,91.0906018 224.947072,91.3674411 L224.490903,91.753073 C224.27508,91.4637592 224.05926,91.1916089 223.843437,90.9366139 Z M234.342687,93.6044751 L235.858346,93.3982865 L235.858346,92.4643308 L234.144033,92.6975441 C234.090077,94.212458 233.741822,95.424203 233.099258,96.3328154 C232.981536,96.1968471 232.849102,96.0604313 232.701949,95.923564 C233.315083,95.0851414 233.621646,93.8839708 233.621646,92.3200163 L233.621646,89.4519635 L237.962611,88.8614233 L237.962611,90.9940779 L237.432866,91.0661439 L237.432866,90.8381704 L234.15139,91.2845788 L234.15139,92.1964725 L235.858346,91.9642601 L235.858346,91.192092 L236.388091,91.1200261 L236.388091,91.8921942 L238.330489,91.6279525 L238.330489,92.1280232 L236.388091,92.3922649 L236.388091,93.3262206 L237.918465,93.1180301 L237.918465,95.6036759 L237.388721,95.6757418 L237.388721,95.2492109 L234.872432,95.591524 L234.872432,96.0180549 L234.342687,96.0901208 L234.342687,93.6044751 Z M231.046497,93.3101331 C231.394757,93.167154 231.733201,93.0242859 232.061841,92.8815245 L232.061841,91.2011397 L231.134787,91.3272551 L231.134787,90.7977684 L232.061841,90.671653 L232.061841,89.2670426 L232.606301,89.1929748 L232.606301,90.5975853 L233.408276,90.4884855 L233.408276,91.0179722 L232.606301,91.127072 L232.606301,92.6383152 C232.839292,92.5330792 233.067374,92.4272864 233.290555,92.3209336 C233.29546,92.5408869 233.310175,92.7300867 233.3347,92.8885387 C233.082089,93.0037978 232.839292,93.116495 232.606301,93.2266337 L232.606301,95.4512131 C232.606301,96.0052158 232.363504,96.3201455 231.877902,96.3960116 C231.725845,96.4216 231.500215,96.4498431 231.201006,96.4807419 C231.181385,96.2873038 231.151955,96.0878494 231.112715,95.8823724 C231.382494,95.8750881 231.588503,95.8617705 231.73075,95.8424194 C231.951479,95.8123918 232.061841,95.6723617 232.061841,95.4223251 L232.061841,93.480874 C231.725844,93.6393443 231.411924,93.7899069 231.120072,93.9325664 L231.046497,93.3101331 Z M237.432866,89.418852 L234.15139,89.8652603 L234.15139,90.799216 L237.432866,90.3528077 L237.432866,89.418852 Z M237.388721,93.6754588 L234.872432,94.0177719 L234.872432,95.1135152 L237.388721,94.7712021 L237.388721,93.6754588 Z M239.522415,91.4584502 L244.415198,90.7928413 C244.390673,91.6296331 244.353885,92.4484701 244.304835,93.2493769 C244.245974,94.1741852 243.811882,94.689181 243.002545,94.7943795 C242.605234,94.8533319 242.185857,94.898127 241.744401,94.9287662 C241.714971,94.7268574 241.680636,94.5231675 241.641395,94.3176906 C242.019085,94.3202395 242.440915,94.2922698 242.906897,94.2337809 C243.397404,94.1768582 243.667179,93.8533559 243.716229,93.2632643 C243.75547,92.7284368 243.7849,92.1140588 243.80452,91.4201119 L241.542068,91.7278935 C241.483207,92.5546482 241.312758,93.2372363 241.030717,93.7756781 C240.657932,94.4833504 240.032544,95.075847 239.154537,95.5531858 C239.027005,95.403844 238.887213,95.2586239 238.735156,95.1175212 C239.549397,94.7027866 240.135544,94.1818133 240.493614,93.5545857 C240.751131,93.0807637 240.899507,92.4992305 240.938747,91.8099685 L239.522415,92.0026448 L239.522415,91.4584502 Z M242.568449,87.9848148 L243.098194,87.6847754 C243.637751,88.9252925 244.584416,89.7794817 245.938215,90.2473686 C245.717487,90.5078222 245.558074,90.7158075 245.459973,90.8713307 C244.111079,90.2753069 243.147247,89.3131445 242.568449,87.9848148 Z M238.521786,91.3518933 C239.53223,90.4986424 240.39551,89.4055844 241.11165,88.0726863 L241.634037,88.2884266 C240.888467,89.6939658 239.993305,90.8624489 238.948525,91.7939109 C238.845519,91.6559408 238.703274,91.508603 238.521786,91.3518933 Z M249.263836,87.5005126 C250.475388,87.3160836 251.686922,87.0458618 252.898475,86.6898391 L253.097129,87.192301 C252.062159,87.4850802 250.97325,87.7337177 249.830369,87.9382208 L249.830369,89.5781587 L253.420862,89.0897119 L253.420862,89.6265525 L252.037639,89.8147246 L252.037639,93.7270428 L251.471106,93.8041133 L251.471106,89.8917951 L249.830369,90.1149993 L249.830369,90.3944506 C249.830369,91.9878212 249.425706,93.2685224 248.61637,94.2365925 C248.493743,94.076778 248.366213,93.9323411 248.233776,93.8032773 C248.920486,92.9744562 249.263836,91.8614306 249.263836,90.4641671 L249.263836,87.5005126 Z M246.100081,91.9388262 C246.610209,91.1242218 246.995251,90.2114339 247.25522,89.2004349 L246.203087,89.3435659 L246.203087,88.8361411 L247.269935,88.6910084 L247.269935,87.227566 L247.807037,87.1544992 L247.807037,88.6179415 L248.822382,88.4798152 L248.822382,88.9872399 L247.807037,89.1253663 L247.807037,89.9637202 L248.079267,89.7134208 C248.525629,90.1772849 248.849358,90.5524179 249.050466,90.8388308 L248.594297,91.2391707 C248.363759,90.9077347 248.101342,90.565933 247.807037,90.2137555 L247.807037,94.3025693 L247.269935,94.3756361 L247.269935,90.5956896 C247.019776,91.3651227 246.715666,92.0193192 246.357596,92.5582985 C246.298735,92.3947121 246.212898,92.1882234 246.100081,91.9388262 Z" id="数据分析"></path>
                    </g>
                </g>
            </g>
        </g>
    </g>
</svg>